<svg width="32" height="32" viewBox="0 0 32 32" fill="none" xmlns="http://www.w3.org/2000/svg">
<path d="M21.9154 28.942C20.11 28.942 18.3021 28.2531 16.9255 26.8777L15.9985 25.9471L15.0727 26.8765C12.3232 29.626 7.85573 29.6309 5.11353 26.8887C2.40413 24.1793 2.36525 19.7957 5.00296 17.0498V17.0474L5.10138 16.9477L8.96379 13.0683V7.53533C8.97229 5.65576 9.70614 3.89283 11.0329 2.56851C12.3609 1.24418 14.1238 0.515198 15.9997 0.515198C17.8756 0.515198 19.6386 1.24418 20.9653 2.56972C22.2909 3.89405 23.0259 5.65698 23.0344 7.53411V13.0683L26.9952 17.0462V17.0486C29.633 19.7932 29.5953 24.1769 26.8859 26.8875C25.5166 28.2567 23.7172 28.9408 21.9166 28.9408L21.9154 28.942ZM15.9997 24.658L17.5695 26.235C19.963 28.6285 23.8533 28.6334 26.2407 26.2447C28.6294 23.8561 28.6343 19.973 26.2517 17.5905L26.1521 17.4896L22.1232 13.4425V7.53411C22.1086 4.16499 19.3616 1.42278 15.9985 1.42278C12.6354 1.42278 9.88838 4.16499 9.8738 7.53654V13.4425L5.74532 17.5893C3.36275 19.9718 3.36761 23.8549 5.75625 26.2435C8.14368 28.631 12.0352 28.6261 14.4288 26.2326L15.9985 24.6568L15.9997 24.658Z" fill="var(--logo-mark-color, #003655)"/>
<path d="M21.7402 27.2016C20.2774 27.2016 18.8996 26.6306 17.862 25.593L15.9982 23.7219L14.1332 25.5954C13.0969 26.6318 11.7203 27.2029 10.2562 27.2029C8.79827 27.2029 7.42778 26.6355 6.39748 25.6039C5.36354 24.57 4.79371 23.1983 4.7925 21.7415C4.79128 20.2848 5.35746 18.9155 6.38776 17.8852L6.63076 17.641L10.5357 13.719V7.78632C10.5478 4.78047 12.9997 2.33594 15.9982 2.33594C18.9968 2.33594 21.4486 4.7829 21.4608 7.78997V13.719L25.6087 17.8864C26.639 18.9167 27.2052 20.286 27.2027 21.7428C27.2015 23.1995 26.6305 24.5712 25.5978 25.6052C24.5675 26.6355 23.197 27.2041 21.739 27.2041L21.7402 27.2016ZM15.9994 23.1679L18.139 25.316C19.1025 26.2795 20.3819 26.8104 21.7414 26.8104C23.101 26.8104 24.367 26.2831 25.3244 25.3257C26.2842 24.3659 26.8139 23.0914 26.8152 21.7379C26.8164 20.3856 26.2915 19.1148 25.3341 18.1574L25.0279 17.85L21.072 13.877V7.78875C21.0598 4.99552 18.7842 2.72351 15.9982 2.72351C13.2123 2.72351 10.9366 4.99431 10.9245 7.78511V13.8782L6.66235 18.1598C5.70616 19.116 5.18008 20.3881 5.18129 21.7403C5.18251 23.0938 5.71223 24.3683 6.67207 25.3281C7.62947 26.2855 8.90155 26.8128 10.255 26.8128C11.6146 26.8128 12.8927 26.2819 13.8562 25.3196L15.997 23.1691L15.9994 23.1679Z" fill="var(--logo-mark-color, #003655)"/>
<path d="M21.7403 26.0839C20.5752 26.0839 19.4793 25.6283 18.6519 24.8021L15.9984 22.1376L13.3412 24.8057C12.5162 25.6307 11.4215 26.0851 10.2564 26.0851C9.09729 26.0851 8.00746 25.6331 7.18735 24.8142C6.36481 23.9917 5.91041 22.8994 5.9092 21.7403C5.90798 20.5825 6.35752 19.4951 7.17642 18.6762L7.66484 18.1853L11.6512 14.182V7.78756C11.6609 5.3977 13.6109 3.45496 15.9971 3.45496C18.3834 3.45496 20.3322 5.40256 20.3431 7.79607V14.182L24.8179 18.6762C25.6368 19.4951 26.0875 20.5837 26.0863 21.7416C26.0851 22.9007 25.6307 23.9929 24.8081 24.8155C23.988 25.6356 22.8982 26.0863 21.7391 26.0863L21.7403 26.0839ZM15.9996 21.5848L18.9289 24.5263C19.6822 25.2796 20.6809 25.6939 21.7415 25.6939C22.8022 25.6939 23.7888 25.2832 24.5348 24.5372C25.2844 23.7876 25.6975 22.7937 25.6987 21.7379C25.6999 20.6845 25.2905 19.6943 24.5445 18.9483L23.971 18.3724L19.9555 14.3399V7.79485C19.9458 5.61518 18.1719 3.84253 15.9996 3.84253C13.8272 3.84253 12.0533 5.61154 12.0436 7.78635V14.3399L7.45465 18.9495C6.70987 19.6943 6.30042 20.6845 6.30163 21.7379C6.30285 22.7937 6.71594 23.7876 7.46558 24.5372C8.21158 25.2832 9.20421 25.6939 10.2588 25.6939C11.3195 25.6939 12.317 25.2808 13.0678 24.5299L16.0008 21.5848H15.9996Z" fill="var(--logo-mark-color, #003655)"/>
<path d="M10.0875 28.9526C10.0875 28.9526 10.0815 28.9526 10.079 28.9526C8.2031 28.9502 6.43774 28.2163 5.10734 26.8872C2.36514 24.145 2.37 19.6775 5.11828 16.9292L6.04895 16.0022L5.11949 15.0764C2.37 12.3269 2.36514 7.85941 5.10734 5.11721C7.81674 2.40781 12.1992 2.36893 14.9438 5.00543H14.9462L15.0483 5.10628L18.9277 8.96869H24.4607C26.3403 8.97719 28.1032 9.71104 29.4275 11.0378C30.7518 12.3645 31.482 14.1275 31.482 16.0034C31.482 17.8793 30.7531 19.6423 29.4275 20.969C28.1032 22.2945 26.3403 23.0296 24.4631 23.0381H18.9289L14.9486 27.0014H14.9462C13.634 28.2625 11.9149 28.955 10.09 28.955L10.0875 28.9526ZM10.0863 3.96541C8.51657 3.96541 6.9456 4.5644 5.74885 5.75993C3.36142 8.14736 3.36628 12.0389 5.75979 14.4324L7.33561 16.0022L5.75857 17.5719C3.36507 19.9654 3.36021 23.8558 5.74764 26.2432C6.90551 27.4011 8.44367 28.0402 10.0778 28.0426C10.0802 28.0426 10.0827 28.0426 10.0851 28.0426C11.7156 28.0426 13.2489 27.4072 14.4019 26.2542L14.504 26.1533L18.5486 22.1257H24.4571C27.8262 22.1111 30.5684 19.364 30.5684 16.001C30.5684 12.6379 27.8262 9.89085 24.4546 9.87627H18.5486L14.4019 5.74778C13.2124 4.55832 11.6488 3.9642 10.0851 3.9642L10.0863 3.96541Z" fill="var(--logo-mark-color, #003655)"/>
<path d="M10.2613 27.2079C8.80089 27.2079 7.42797 26.6381 6.39281 25.6029C5.36008 24.5702 4.79269 23.1973 4.7939 21.7381C4.79512 20.2777 5.36737 18.9023 6.40253 17.8659L8.27359 16.0022L6.4001 14.1372C4.26539 12.0025 4.26053 8.5325 6.39038 6.40143C7.42554 5.36627 8.79968 4.79645 10.2589 4.79645C11.7181 4.79645 13.08 5.36263 14.1079 6.39171L14.3691 6.6505L18.2753 10.5396H24.208C27.2139 10.5518 29.6584 13.0024 29.6584 16.0022C29.6584 19.0019 27.2114 21.4526 24.2044 21.4647H18.2753L14.1091 25.6126C13.0813 26.6405 11.7144 27.2067 10.2601 27.2067L10.2613 27.2079ZM10.2613 26.8179C11.6111 26.8179 12.8796 26.2918 13.8345 25.3368L14.1395 25.0343L18.1161 21.0747H24.2044C26.9976 21.0625 29.2696 18.7869 29.2696 16.001C29.2696 13.215 26.9988 10.9394 24.208 10.9272H18.1149L13.8333 6.66508C12.8784 5.71011 11.6087 5.18402 10.2589 5.18402C8.90903 5.18402 7.62723 5.71375 6.66496 6.6748C4.68698 8.65278 4.69063 11.8749 6.67347 13.859L8.82398 15.9997L6.6759 18.1393C5.71364 19.1016 5.18269 20.3785 5.18148 21.7356C5.18026 23.0916 5.70756 24.3661 6.66618 25.3247C7.62723 26.2857 8.90417 26.8155 10.2601 26.8155L10.2613 26.8179Z" fill="var(--logo-mark-color, #003655)"/>
<path d="M10.2612 26.0901C9.09968 26.0901 8.0062 25.6357 7.18244 24.8119C6.35869 23.9882 5.91036 22.8995 5.91158 21.738C5.91279 20.5753 6.36841 19.4806 7.19338 18.6556L9.85904 16.0021L7.19095 13.345C5.49241 11.6464 5.48877 8.88601 7.18366 7.19112C8.00741 6.36736 9.10089 5.91296 10.2624 5.91296C11.4239 5.91296 12.504 6.36372 13.3217 7.18018L13.8357 7.69047L17.8171 11.6549H24.2115C26.6014 11.6647 28.5442 13.6147 28.5442 16.0009C28.5442 18.3871 26.5965 20.3359 24.203 20.3469H17.8171L13.3229 24.8216C12.5053 25.6393 11.4179 26.0901 10.2624 26.0901H10.2612ZM10.2612 25.7001C11.3121 25.7001 12.3011 25.2906 13.0459 24.5458L13.5939 24.0003L17.6543 19.9569H24.1994C26.3791 19.9472 28.1517 18.1733 28.1517 16.0009C28.1517 13.8285 26.3827 12.0547 24.2079 12.0449H17.6543L13.0447 7.45598C12.3011 6.71242 11.3121 6.30297 10.2612 6.30297C9.21024 6.30297 8.20788 6.71606 7.45824 7.46692C5.91644 9.00994 5.91887 11.5225 7.46553 13.0692L10.4106 16.0021L7.46796 18.9314C6.71589 19.6823 6.30159 20.6798 6.30037 21.7392C6.29916 22.7963 6.70982 23.7889 7.45703 24.5373C8.20788 25.2882 9.20295 25.7013 10.26 25.7013L10.2612 25.7001Z" fill="var(--logo-mark-color, #003655)"/>
<path d="M21.9115 28.9524C20.0866 28.9524 18.3674 28.2599 17.0553 26.9987H17.0528L16.9508 26.8979L13.0714 23.0355H7.53837C5.6588 23.027 3.89587 22.2931 2.57154 20.9664C1.24722 19.6409 0.518234 17.8767 0.518234 16.002C0.518234 14.1273 1.24722 12.3631 2.57276 11.0364C3.89708 9.71085 5.66001 8.97579 7.53715 8.96729H13.0714L17.0516 5.00404H17.0541C18.3662 3.74289 20.0854 3.05035 21.9103 3.05035C21.9127 3.05035 21.9164 3.05035 21.9188 3.05035C23.7947 3.05278 25.5601 3.78663 26.8905 5.11581C29.6327 7.85801 29.6278 12.3255 26.8796 15.0738L25.9489 16.0008L26.8784 16.9266C29.6278 19.6761 29.6327 24.1436 26.8905 26.8858C25.5601 28.2162 23.7947 28.9488 21.9188 28.9512C21.9164 28.9512 21.9127 28.9512 21.9103 28.9512L21.9115 28.9524ZM17.4914 26.1543L17.5935 26.2552C18.7465 27.4082 20.2798 28.0436 21.9103 28.0436C21.9127 28.0436 21.9152 28.0436 21.9176 28.0436C23.5518 28.0412 25.0887 27.4021 26.2478 26.2442C28.6352 23.8568 28.6304 19.9652 26.2368 17.5717L24.661 16.002L26.2381 14.4322C28.6316 12.0387 28.6364 8.14839 26.2478 5.76097C25.0899 4.60309 23.5518 3.96402 21.9176 3.96159C20.2823 3.96159 18.7489 4.59459 17.5935 5.75003L17.4914 5.85087L13.4468 9.87852H7.53837C4.16924 9.8931 1.42704 12.6402 1.42704 16.0032C1.42704 19.3663 4.16924 22.1133 7.5408 22.1279H13.4468L17.4914 26.1556V26.1543Z" fill="var(--logo-mark-color, #003655)"/>
<path d="M21.7366 27.208C20.2823 27.208 18.9155 26.6418 17.8876 25.6127L17.6239 25.3515L13.7214 21.4648H7.78872C4.78286 21.4526 2.33833 19.002 2.33833 16.0022C2.33833 13.0025 4.78529 10.5519 7.79236 10.5397H13.7214L17.8888 6.39178C18.9167 5.36391 20.2835 4.79773 21.7379 4.79773C23.1922 4.79773 24.5712 5.36755 25.6063 6.40271C27.7362 8.53257 27.7313 12.0038 25.5954 14.1397L23.7243 16.0035L25.5978 17.8684C26.633 18.9036 27.204 20.2777 27.2052 21.7381C27.2065 23.1985 26.6391 24.5702 25.6063 25.603C24.5712 26.6381 23.197 27.208 21.7379 27.208H21.7366ZM17.8548 25.0307L17.901 25.0757L18.1622 25.3369C19.1172 26.2919 20.3868 26.818 21.7366 26.818C23.0865 26.818 24.3683 26.2882 25.3305 25.3272C26.2892 24.3686 26.8165 23.0941 26.8152 21.7381C26.814 20.381 26.2831 19.1041 25.322 18.143L23.1715 16.0022L25.3196 13.8627C27.3037 11.8786 27.3085 8.65528 25.3305 6.6773C24.3683 5.71504 23.0926 5.18652 21.7366 5.18652C20.3807 5.18652 19.1172 5.71261 18.1622 6.66758L17.8548 6.97254L13.8806 10.9297H7.79236C4.99913 10.9419 2.72713 13.2175 2.72713 16.0035C2.72713 18.7894 4.99792 21.065 7.78872 21.0772H13.8818L17.8548 25.0332V25.0307Z" fill="var(--logo-mark-color, #003655)"/>
<path d="M21.7365 26.0901C20.5811 26.0901 19.4949 25.6405 18.6772 24.8229L18.1609 24.3089L14.183 20.3481H7.78861C5.39876 20.3384 3.45601 18.3883 3.45601 16.0021C3.45601 13.6159 5.40362 11.6671 7.79712 11.6562H14.183L18.6772 7.1814C19.4949 6.36372 20.5823 5.91296 21.7378 5.91296C22.8932 5.91296 23.9927 6.36736 24.8165 7.19112C26.5114 8.88601 26.5065 11.6477 24.8056 13.3474L22.1399 16.0009L24.808 18.6581C25.6317 19.4818 26.0849 20.5753 26.0874 21.738C26.0886 22.8983 25.6378 23.9906 24.8165 24.8119C23.9927 25.6357 22.8993 26.0901 21.7378 26.0901H21.7365ZM18.3917 23.9894L18.4391 24.0331L18.953 24.5471C19.6966 25.2906 20.6856 25.7001 21.7365 25.7001C22.7875 25.7001 23.7898 25.287 24.5395 24.5361C25.2867 23.7889 25.6974 22.7951 25.6961 21.738C25.6949 20.6798 25.2818 19.6835 24.5322 18.9339L21.5871 16.0009L24.5298 13.0716C26.0776 11.5237 26.0825 9.00872 24.5407 7.46692C23.7898 6.71606 22.7948 6.30297 21.7378 6.30297C20.6807 6.30297 19.6978 6.71242 18.953 7.4572L18.4051 8.00272L14.3446 12.0462H7.79955C5.61988 12.0559 3.84723 13.8297 3.84723 16.0021C3.84723 18.1745 5.61624 19.9484 7.79104 19.9581H14.3446L18.3929 23.9894H18.3917Z" fill="var(--logo-mark-color, #003655)"/>
<path d="M15.9994 31.4823C14.1247 31.4823 12.3605 30.7533 11.0338 29.4277C9.70822 28.1034 8.97316 26.3405 8.96466 24.4633V18.9291L5.00383 14.9513V14.9489C2.36612 12.2042 2.40379 7.8206 5.11318 5.10998C7.85538 2.36778 12.3229 2.37264 15.0711 5.12092L15.9982 6.05159L16.924 5.12213C19.6735 2.37264 24.1409 2.36778 26.8831 5.10998C29.5925 7.81938 29.6314 12.203 26.9937 14.9489V14.9513L26.8953 15.0509L23.0329 18.9303V24.4633C23.0244 26.3429 22.2905 28.1058 20.9638 29.4302C19.637 30.7545 17.8741 31.4847 15.9982 31.4847L15.9994 31.4823ZM5.8446 14.5066L9.87346 18.5537V24.4621C9.88804 27.8313 12.6351 30.5735 15.9982 30.5735C19.3612 30.5735 22.1083 27.8313 22.1229 24.4597V18.5537L26.2513 14.407C28.6339 12.0244 28.629 8.14135 26.2404 5.75271C23.853 3.36528 19.9614 3.37014 17.5679 5.76364L15.9982 7.33947L14.4284 5.76243C12.0349 3.36892 8.14455 3.36406 5.75712 5.75271C3.36848 8.14135 3.36362 12.0244 5.74619 14.407L5.84581 14.5078L5.8446 14.5066Z" fill="var(--logo-mark-color, #003655)"/>
<path d="M15.9996 29.6632C12.9998 29.6632 10.5492 27.2163 10.5371 24.2092V18.2801L6.38915 14.1128C5.35885 13.0825 4.79267 11.7132 4.7951 10.2564C4.79631 8.79967 5.36735 7.42796 6.40008 6.39401C7.43038 5.36371 8.80087 4.7951 10.2588 4.7951C11.7168 4.7951 13.0995 5.36614 14.137 6.40373L16.0008 8.27601L17.8658 6.40252C18.9022 5.36614 20.2788 4.7951 21.7428 4.7951C23.2068 4.7951 24.57 5.3625 25.6016 6.39401C26.6355 7.42796 27.2053 8.79967 27.2065 10.2564C27.2078 11.7132 26.6416 13.0825 25.6113 14.1128L25.3476 14.3788L21.4634 18.2801V24.2129C21.4512 27.2187 19.0006 29.6632 16.0008 29.6632H15.9996ZM6.95532 14.1322L10.9247 18.1197V24.208C10.9368 27.0012 13.2125 29.2732 15.9984 29.2732C18.7843 29.2732 21.06 27.0024 21.0721 24.2116V18.1185L25.3343 13.837C26.2905 12.8808 26.8165 11.6087 26.8153 10.2564C26.8141 8.90294 26.2844 7.62843 25.3245 6.6686C24.3671 5.7112 23.0951 5.1839 21.7416 5.1839C20.3881 5.1839 19.1039 5.71363 18.1404 6.6771L15.9996 8.82761L13.86 6.67832C12.8966 5.71484 11.6172 5.1839 10.2576 5.1839C8.89807 5.1839 7.63207 5.7112 6.67467 6.6686C5.71483 7.62843 5.1851 8.90294 5.18389 10.2564C5.18267 11.6087 5.70754 12.8796 6.66495 13.837L6.95654 14.131L6.95532 14.1322Z" fill="var(--logo-mark-color, #003655)"/>
<path d="M15.9996 28.5453C13.6133 28.5453 11.6645 26.5977 11.6536 24.2042V17.8183L7.17882 13.3241C6.35993 12.5052 5.90917 11.4166 5.91039 10.2587C5.9116 9.09961 6.366 8.00734 7.18854 7.18481C8.00865 6.3647 9.09849 5.91394 10.2564 5.91394C11.4142 5.91394 12.5174 6.36956 13.3448 7.19574L15.9983 9.8614L18.6555 7.19331C19.4805 6.36834 20.5752 5.91516 21.7403 5.91516C22.9055 5.91516 23.9892 6.36713 24.8081 7.18602C25.6307 8.00856 26.0851 9.10082 26.0863 10.2599C26.0875 11.4178 25.638 12.5052 24.8191 13.3241L24.2893 13.8562L20.3443 17.8195V24.2139C20.3346 26.6038 18.3845 28.5465 15.9983 28.5465L15.9996 28.5453ZM7.99286 13.5902L12.0436 17.6579V24.203C12.0533 26.3826 13.8272 28.1553 15.9996 28.1553C18.1719 28.1553 19.9458 26.3863 19.9555 24.2115V17.6579L24.5445 13.0483C25.2893 12.3035 25.6987 11.3133 25.6975 10.2599C25.6963 9.2041 25.2832 8.21024 24.5335 7.4606C23.7876 6.71461 22.7961 6.30395 21.7403 6.30395C20.6845 6.30395 19.6821 6.71704 18.9313 7.46789L15.9983 10.413L13.069 7.47032C12.3157 6.71704 11.317 6.30273 10.2564 6.30273C9.19568 6.30273 8.20912 6.71339 7.46313 7.45939C6.71349 8.20903 6.3004 9.20288 6.29918 10.2587C6.29797 11.3121 6.70741 12.3023 7.45341 13.0483L7.99164 13.5889L7.99286 13.5902Z" fill="var(--logo-mark-color, #003655)"/>
</svg>
