<svg width="98" height="32" viewBox="0 0 98 32" fill="none" xmlns="http://www.w3.org/2000/svg">
<g clip-path="url(#clip0_3800_68191)">
<path d="M1.58679 10.5477L0.0376945 10.3266V9.40442H5.52574V10.3266L3.63281 10.5477V22.0232L8.56561 21.8567L9.69433 18.7573L10.8607 18.9238L10.1913 23.1118H3.05176e-05V22.2078L1.58679 22.0232V10.5477Z" fill="var(--color-content-default, #282727)"/>
<path d="M16.7657 23.3151C15.2227 23.3151 14.0442 22.8291 13.2277 21.8572C12.4246 20.8852 12.0224 19.5876 12.0224 17.9644C12.0224 16.894 12.2326 15.9536 12.653 15.142C13.0734 14.3304 13.6602 13.7035 14.4123 13.26C15.1777 12.8177 16.044 12.5954 17.0123 12.5954C18.1982 12.5954 19.1155 12.9149 19.7655 13.5552C20.4289 14.1822 20.7788 15.0861 20.8164 16.2671C20.8164 17.0179 20.7715 17.5889 20.6828 17.9826H14.1049C14.1304 19.2 14.4232 20.1841 14.9845 20.935C15.5459 21.6725 16.3417 22.0418 17.3744 22.0418C17.8847 22.0418 18.4132 21.9556 18.9612 21.783C19.5225 21.5984 19.955 21.3833 20.2612 21.1379L20.6245 21.9495C20.2551 22.3189 19.7072 22.6384 18.9806 22.9093C18.254 23.1803 17.5141 23.3151 16.7621 23.3151H16.7657ZM18.7157 17.0045C18.7534 16.7458 18.7728 16.4821 18.7728 16.2112C18.7607 15.4117 18.5821 14.7848 18.237 14.3292C17.9053 13.8614 17.3768 13.6281 16.6503 13.6281C15.9237 13.6281 15.3187 13.8869 14.8716 14.4033C14.4378 14.9196 14.1899 15.7871 14.1256 17.0045H18.7145H18.7157Z" fill="var(--color-content-default, #282727)"/>
<path d="M27.0322 28.0935C25.4005 28.0935 24.2146 27.842 23.4759 27.3366C22.7494 26.8445 22.3861 26.1617 22.3861 25.2882C22.3861 24.7475 22.5586 24.2494 22.9025 23.7937C23.2597 23.3381 23.6801 22.9943 24.1648 22.761C23.578 22.4415 23.2852 21.9251 23.2852 21.2107C23.2852 20.7685 23.4188 20.3493 23.6861 19.9556C23.9534 19.562 24.3046 19.2607 24.7383 19.0517C24.1004 18.7808 23.6096 18.3932 23.2658 17.889C22.9341 17.3847 22.7688 16.7882 22.7688 16.0993C22.7688 15.4104 22.9729 14.7653 23.3812 14.2355C23.8016 13.707 24.3495 13.3012 25.025 13.0181C25.7139 12.735 26.4405 12.5941 27.2047 12.5941C28.4926 12.5941 29.4998 12.8529 30.2263 13.3692C30.4171 13.1846 30.7111 13.006 31.106 12.8347C31.5009 12.6621 31.9225 12.5759 32.3684 12.5759H33.0184V14.1991H30.9152C31.2214 14.6547 31.3745 15.1832 31.3745 15.7858C31.3745 16.5112 31.1837 17.1575 30.801 17.7225C30.4317 18.2765 29.9092 18.7066 29.2337 19.014C28.5703 19.3214 27.8183 19.4757 26.9775 19.4757C26.4296 19.4757 25.9387 19.4198 25.505 19.3093C25.3264 19.4818 25.1793 19.6725 25.0651 19.8815C24.9509 20.0905 24.8926 20.2934 24.8926 20.4902C24.8926 20.9325 25.0457 21.2411 25.3519 21.4124C25.658 21.5728 26.206 21.6517 26.9957 21.6517H29.156C30.3928 21.6517 31.3101 21.8789 31.9091 22.3346C32.5081 22.7902 32.8082 23.4353 32.8082 24.2724C32.8082 24.9735 32.547 25.6126 32.0245 26.1909C31.5021 26.7814 30.7937 27.2431 29.902 27.5747C29.0223 27.9198 28.0661 28.0911 27.0334 28.0911L27.0322 28.0935ZM27.1658 18.4624C28.6189 18.4624 29.3455 17.6326 29.3455 15.9717C29.3455 15.148 29.1547 14.5453 28.772 14.1638C28.4027 13.7702 27.8414 13.5734 27.0893 13.5734C26.3882 13.5734 25.8342 13.7641 25.426 14.1456C25.0177 14.515 24.8136 15.1115 24.8136 15.9353C24.8136 16.7104 25.0044 17.3252 25.3871 17.7808C25.782 18.2364 26.3749 18.4636 27.1658 18.4636V18.4624ZM27.2047 27.0231C27.8292 27.0231 28.416 26.9308 28.964 26.7461C29.5253 26.5736 29.9773 26.31 30.3211 25.9528C30.665 25.6077 30.8375 25.2019 30.8375 24.7353C30.8375 24.1813 30.6844 23.7755 30.3782 23.5179C30.072 23.2725 29.4791 23.1486 28.5995 23.1486H26.3433C25.833 23.1486 25.4321 23.1182 25.138 23.0563C24.6156 23.6103 24.3544 24.2311 24.3544 24.92C24.3544 25.6089 24.5706 26.1314 25.0044 26.4886C25.4381 26.8458 26.1708 27.0231 27.2035 27.0231H27.2047Z" fill="var(--color-content-default, #282727)"/>
<path d="M34.0766 20.3445C34.0766 19.1879 34.6756 18.3398 35.8735 17.7979C37.0715 17.2439 38.589 16.9487 40.4248 16.9122V16.3959C40.4248 15.8175 40.3617 15.3631 40.2341 15.0302C40.1065 14.6985 39.8842 14.458 39.5646 14.311C39.2585 14.1506 38.8187 14.0716 38.2452 14.0716C37.5952 14.0716 37.0083 14.1639 36.4859 14.3486C35.9756 14.5211 35.4665 14.7362 34.9562 14.9938L34.4788 14.0339C34.644 13.8991 34.9502 13.7205 35.3961 13.4994C35.842 13.2782 36.3583 13.0814 36.9452 12.9089C37.532 12.7363 38.1176 12.6501 38.7044 12.6501C39.6096 12.6501 40.3228 12.7728 40.8464 13.0194C41.3822 13.2527 41.7637 13.6342 41.9934 14.1627C42.223 14.6912 42.3372 15.3984 42.3372 16.2841V22.2071H43.4659V23.0187C43.2108 23.0807 42.8864 23.1414 42.4903 23.2034C42.1076 23.2653 41.7698 23.2957 41.477 23.2957C41.1198 23.2957 40.878 23.2398 40.7505 23.1293C40.6229 23.0308 40.5597 22.8036 40.5597 22.4464V21.8377C40.177 22.2071 39.7056 22.5449 39.1443 22.8522C38.5963 23.1596 37.9718 23.3139 37.2708 23.3139C36.3535 23.3139 35.588 23.0612 34.9757 22.557C34.3767 22.0406 34.0766 21.3019 34.0766 20.3433V20.3445ZM38.0921 22.0601C38.4238 22.0601 38.8065 21.9617 39.239 21.7648C39.6728 21.568 40.0676 21.3347 40.4248 21.0638V17.8903C39.0349 17.8903 37.984 18.0993 37.2696 18.5172C36.5685 18.923 36.2174 19.4576 36.2174 20.1222C36.2174 20.7868 36.3826 21.2788 36.7143 21.5984C37.0582 21.9058 37.5174 22.0601 38.0909 22.0601H38.0921Z" fill="var(--color-content-default, #282727)"/>
<path d="M44.5655 18.0567C44.5655 17.0361 44.7696 16.1128 45.1778 15.289C45.5982 14.4652 46.2105 13.8128 47.0136 13.3329C47.8301 12.8408 48.8045 12.5954 49.9393 12.5954C50.4873 12.5954 50.9587 12.644 51.3547 12.7424C51.7496 12.8408 52.221 12.9757 52.7702 13.1482L52.6936 15.99H51.4507L51.0303 14.108C50.9538 13.7642 50.469 13.5917 49.5772 13.5917C48.6854 13.5917 47.9771 13.9428 47.4547 14.6438C46.9444 15.3327 46.6892 16.3169 46.6892 17.5962C46.6892 19.0481 46.976 20.155 47.5494 20.9168C48.1363 21.6676 48.8944 22.0418 49.8251 22.0418C50.3609 22.0418 50.8639 21.9616 51.3353 21.8025C51.8201 21.6421 52.2344 21.4514 52.5782 21.2302L52.9415 21.9677C52.5977 22.3128 52.0874 22.6262 51.4118 22.9081C50.7485 23.1791 50.0729 23.3139 49.3853 23.3139C48.3404 23.3139 47.4535 23.0867 46.7269 22.6311C46.0125 22.1755 45.4718 21.5546 45.1013 20.7673C44.7441 19.9679 44.5655 19.0639 44.5655 18.0555V18.0567Z" fill="var(--color-content-default, #282727)"/>
<path d="M56.1479 27.7056C55.9317 27.7056 55.7142 27.6934 55.4979 27.6691C55.2938 27.6448 55.1468 27.6072 55.0581 27.5586V25.9536C55.1346 26.0022 55.2816 26.0399 55.4979 26.0642C55.7275 26.0885 55.9438 26.1006 56.1479 26.1006C56.7603 26.1006 57.2949 25.8916 57.7541 25.4737C58.2255 25.0679 58.6787 24.2806 59.1112 23.1118H58.1939L54.5612 13.9788L53.6815 13.7394V12.8719H58.2899V13.7394L56.8174 13.9606L58.6909 19.4037L59.5705 22.0973L60.393 19.3854L62.0952 13.9606L60.8146 13.7394V12.8719H64.6576V13.7394L63.7014 13.9606C61.8279 19.496 60.7247 22.6379 60.393 23.3888C59.9593 24.447 59.5644 25.2708 59.2072 25.8613C58.85 26.4639 58.4296 26.9195 57.9449 27.2269C57.4601 27.5464 56.8611 27.7068 56.1479 27.7068V27.7056Z" fill="var(--color-content-default, #282727)"/>
<path d="M66.9564 10.7871L65.5409 10.5477V9.40442H71.3534V10.5477L69.7472 10.7871V15.4186H75.5596V10.7871L74.0871 10.5477V9.40442H79.823V10.5477L78.3699 10.7871V21.8203L79.823 22.0049V23.1118H74.0676V22.0049L75.5584 21.8203V16.8206H69.746V21.8203L71.3522 22.0049V23.1118H65.5009V22.0049L66.954 21.8203V10.7871H66.9564Z" fill="var(--color-content-default, #282727)"/>
<path d="M95.9809 26.6356C95.4196 26.6356 94.885 26.5433 94.3747 26.3586C93.8644 26.1861 93.4064 25.971 92.9981 25.7135C92.5899 25.4547 92.0808 25.1108 91.4685 24.6807C90.8695 24.2628 90.3786 23.936 89.9959 23.7027C89.6266 23.4694 89.2439 23.2969 88.849 23.1863C88.3132 23.2726 87.8478 23.3151 87.453 23.3151C85.3875 23.3151 83.8323 22.6882 82.7875 21.4331C81.7547 20.178 81.2384 18.4686 81.2384 16.3035C81.2384 14.8893 81.5057 13.6463 82.0415 12.5772C82.5894 11.5068 83.3549 10.683 84.3366 10.1047C85.3183 9.52635 86.4458 9.23718 87.7215 9.23718C89.838 9.23718 91.4187 9.83981 92.4635 11.0451C93.5084 12.2382 94.0309 13.9112 94.0309 16.0629C94.0309 17.5877 93.7125 18.923 93.0747 20.0663C92.4502 21.1974 91.5839 22.0467 90.4746 22.6129C90.9715 22.6748 91.4563 22.8036 91.9277 23.0004C92.4125 23.1973 92.9981 23.4682 93.687 23.812C94.4391 24.1814 95.0636 24.4572 95.5605 24.6419C96.0708 24.8387 96.5677 24.9371 97.0525 24.9371C97.3963 24.9371 97.6831 24.9128 97.9127 24.863L98.1618 25.6928C97.8811 26.0245 97.5628 26.2651 97.2056 26.4121C96.8618 26.5591 96.4535 26.6332 95.9821 26.6332L95.9809 26.6356ZM87.6061 22.19C88.6388 22.19 89.448 21.6676 90.0348 20.6215C90.6216 19.5633 90.9144 18.0445 90.9144 16.0641C90.9144 14.0837 90.6338 12.7181 90.0737 11.7838C89.5124 10.8361 88.7032 10.3635 87.6449 10.3635C86.5867 10.3635 85.7836 10.8616 85.198 11.8579C84.6111 12.8542 84.3183 14.3304 84.3183 16.2865C84.3183 18.2426 84.6051 19.6872 85.1785 20.6956C85.752 21.6919 86.5612 22.19 87.6073 22.19H87.6061Z" fill="var(--color-content-default, #282727)"/>
</g>
<defs>
<clipPath id="clip0_3800_68191">
<rect width="98" height="32" fill="white"/>
</clipPath>
</defs>
</svg>
