<svg width="140" height="32" viewBox="0 0 140 32" fill="none" xmlns="http://www.w3.org/2000/svg">
<path d="M21.9103 28.9445C20.1048 28.9445 18.2969 28.2556 16.9204 26.8803L15.9933 25.9496L15.0675 26.879C12.318 29.6285 7.85056 29.6334 5.10835 26.8912C2.39896 24.1818 2.36008 19.7982 4.99779 17.0523V17.0499L5.09621 16.9503L8.95861 13.0708V7.53783C8.96712 5.65826 9.70097 3.89533 11.0277 2.57101C12.3557 1.24669 14.1186 0.5177 15.9945 0.5177C17.8705 0.5177 19.6334 1.24669 20.9601 2.57222C22.2857 3.89655 23.0207 5.65948 23.0293 7.53662V13.0708L26.9901 17.0487V17.0511C29.6278 19.7957 29.5901 24.1794 26.8807 26.89C25.5114 28.2592 23.7121 28.9433 21.9115 28.9433L21.9103 28.9445ZM15.9945 24.6605L17.5643 26.2375C19.9578 28.631 23.8481 28.6359 26.2356 26.2472C28.6242 23.8586 28.6291 19.9755 26.2465 17.593L26.1469 17.4921L22.118 13.445V7.53662C22.1034 4.16749 19.3564 1.42529 15.9933 1.42529C12.6303 1.42529 9.88321 4.16749 9.86863 7.53905V13.445L5.74014 17.5918C3.35757 19.9743 3.36243 23.8574 5.75108 26.246C8.13851 28.6335 12.0301 28.6286 14.4236 26.2351L15.9933 24.6593L15.9945 24.6605Z" fill="var(--logo-mark-color, #003655)"/>
<path d="M21.7352 27.2046C20.2724 27.2046 18.8946 26.6335 17.857 25.5959L15.9933 23.7249L14.1283 25.5984C13.0919 26.6347 11.7153 27.2058 10.2513 27.2058C8.79332 27.2058 7.42282 26.6384 6.39252 25.6069C5.35858 24.5729 4.78875 23.2012 4.78754 21.7445C4.78632 20.2877 5.3525 18.9184 6.3828 17.8881L6.6258 17.6439L10.5307 13.722V7.78925C10.5429 4.7834 12.9947 2.33887 15.9933 2.33887C18.9918 2.33887 21.4436 4.78583 21.4558 7.7929V13.722L25.6037 17.8893C26.634 18.9196 27.2002 20.2889 27.1978 21.7457C27.1966 23.2024 26.6255 24.5741 25.5928 25.6081C24.5625 26.6384 23.192 27.207 21.734 27.207L21.7352 27.2046ZM15.9945 23.1708L18.1341 25.3189C19.0975 26.2824 20.3769 26.8133 21.7365 26.8133C23.096 26.8133 24.362 26.286 25.3194 25.3286C26.2793 24.3688 26.809 23.0943 26.8102 21.7408C26.8114 20.3886 26.2865 19.1177 25.3291 18.1603L25.023 17.8529L21.067 13.8799V7.79168C21.0549 4.99845 18.7792 2.72644 15.9933 2.72644C13.2073 2.72644 10.9317 4.99723 10.9195 7.78804V13.8811L6.65739 18.1627C5.7012 19.1189 5.17512 20.391 5.17633 21.7433C5.17755 23.0967 5.70728 24.3712 6.66711 25.3311C7.62451 26.2885 8.89659 26.8158 10.2501 26.8158C11.6096 26.8158 12.8878 26.2848 13.8513 25.3226L15.992 23.1721L15.9945 23.1708Z" fill="var(--logo-mark-color, #003655)"/>
<path d="M21.7354 26.0868C20.5702 26.0868 19.4743 25.6312 18.6469 24.805L15.9934 22.1406L13.3362 24.8087C12.5113 25.6336 11.4166 26.088 10.2514 26.088C9.09234 26.088 8.0025 25.6361 7.18239 24.8172C6.35985 23.9946 5.90545 22.9024 5.90424 21.7433C5.90302 20.5854 6.35256 19.498 7.17146 18.6791L7.65988 18.1883L11.6462 14.1849V7.79049C11.6559 5.40063 13.606 3.45789 15.9922 3.45789C18.3784 3.45789 20.3272 5.40549 20.3382 7.799V14.1849L24.8129 18.6791C25.6318 19.498 26.0826 20.5866 26.0813 21.7445C26.0801 22.9036 25.6257 23.9958 24.8032 24.8184C23.9831 25.6385 22.8932 26.0892 21.7342 26.0892L21.7354 26.0868ZM15.9946 21.5878L18.9239 24.5292C19.6772 25.2825 20.6759 25.6968 21.7366 25.6968C22.7973 25.6968 23.7838 25.2861 24.5298 24.5402C25.2795 23.7905 25.6926 22.7967 25.6938 21.7408C25.695 20.6875 25.2855 19.6973 24.5395 18.9513L23.9661 18.3754L19.9506 14.3429V7.79778C19.9409 5.61811 18.167 3.84546 15.9946 3.84546C13.8222 3.84546 12.0484 5.61447 12.0387 7.78928V14.3429L7.44969 18.9525C6.70491 19.6973 6.29546 20.6875 6.29668 21.7408C6.29789 22.7967 6.71098 23.7905 7.46062 24.5402C8.20662 25.2861 9.19925 25.6968 10.2539 25.6968C11.3145 25.6968 12.312 25.2837 13.0629 24.5329L15.9958 21.5878H15.9946Z" fill="var(--logo-mark-color, #003655)"/>
<path d="M10.0825 28.9551C10.0825 28.9551 10.0764 28.9551 10.074 28.9551C8.19805 28.9527 6.43269 28.2188 5.10229 26.8897C2.36009 24.1475 2.36495 19.68 5.11323 16.9317L6.0439 16.0047L5.11444 15.0789C2.36495 12.3294 2.36009 7.86192 5.10229 5.11971C7.81169 2.41032 12.1941 2.37144 14.9387 5.00794H14.9412L15.0432 5.10878L18.9226 8.97119H24.4556C26.3352 8.97969 28.0981 9.71354 29.4225 11.0403C30.7468 12.367 31.477 14.13 31.477 16.0059C31.477 17.8818 30.748 19.6448 29.4225 20.9715C28.0981 22.297 26.3352 23.0321 24.4581 23.0406H18.9239L14.9436 27.0039H14.9412C13.629 28.265 11.9098 28.9575 10.0849 28.9575L10.0825 28.9551ZM10.0813 3.96792C8.51152 3.96792 6.94055 4.5669 5.7438 5.76244C3.35637 8.14986 3.36123 12.0414 5.75474 14.4349L7.33056 16.0047L5.75352 17.5744C3.36002 19.9679 3.35516 23.8583 5.74259 26.2457C6.90046 27.4036 8.43862 28.0427 10.0728 28.0451C10.0752 28.0451 10.0776 28.0451 10.0801 28.0451C11.7105 28.0451 13.2438 27.4097 14.3969 26.2567L14.4989 26.1558L18.5436 22.1282H24.452C27.8211 22.1136 30.5633 19.3665 30.5633 16.0035C30.5633 12.6404 27.8211 9.89336 24.4496 9.87878H18.5436L14.3969 5.75029C13.2074 4.56082 11.6437 3.9667 10.0801 3.9667L10.0813 3.96792Z" fill="var(--logo-mark-color, #003655)"/>
<path d="M10.2561 27.2104C8.79572 27.2104 7.4228 26.6406 6.38764 25.6054C5.35491 24.5727 4.78751 23.1998 4.78873 21.7406C4.78994 20.2802 5.3622 18.9048 6.39736 17.8684L8.26842 16.0047L6.39493 14.1397C4.26021 12.005 4.25535 8.535 6.38521 6.40393C7.42037 5.36877 8.7945 4.79895 10.2537 4.79895C11.7129 4.79895 13.0749 5.36513 14.1027 6.39421L14.364 6.653L18.2701 10.5421H24.2028C27.2087 10.5543 29.6532 13.0049 29.6532 16.0047C29.6532 19.0045 27.2063 21.4551 24.1992 21.4672H18.2701L14.104 25.6151C13.0761 26.643 11.7092 27.2092 10.2549 27.2092L10.2561 27.2104ZM10.2561 26.8204C11.606 26.8204 12.8744 26.2943 13.8294 25.3393L14.1343 25.0368L18.1109 21.0772H24.1992C26.9924 21.0651 29.2644 18.7894 29.2644 16.0035C29.2644 13.2175 26.9936 10.9419 24.2028 10.9297H18.1097L13.8282 6.66758C12.8732 5.71261 11.6035 5.18653 10.2537 5.18653C8.90385 5.18653 7.62205 5.71626 6.65979 6.6773C4.68181 8.65528 4.68546 11.8774 6.6683 13.8615L8.8188 16.0022L6.67073 18.1418C5.70847 19.1041 5.17752 20.381 5.17631 21.7381C5.17509 23.0941 5.70239 24.3686 6.66101 25.3272C7.62205 26.2882 8.89899 26.818 10.2549 26.818L10.2561 26.8204Z" fill="var(--logo-mark-color, #003655)"/>
<path d="M10.256 26.093C9.0945 26.093 8.00102 25.6386 7.17727 24.8148C6.35352 23.9911 5.90519 22.9025 5.90641 21.741C5.90762 20.5782 6.36324 19.4835 7.1882 18.6586L9.85386 16.0051L7.18577 13.3479C5.48724 11.6494 5.48359 8.88894 7.17849 7.19405C8.00224 6.37029 9.09572 5.91589 10.2572 5.91589C11.4188 5.91589 12.4989 6.36665 13.3165 7.18311L13.8305 7.6934L17.812 11.6579H24.2064C26.5962 11.6676 28.539 13.6176 28.539 16.0038C28.539 18.3901 26.5914 20.3389 24.1979 20.3498H17.812L13.3178 24.8246C12.5001 25.6422 11.4127 26.093 10.2572 26.093H10.256ZM10.256 25.703C11.307 25.703 12.296 25.2935 13.0407 24.5488L13.5887 24.0032L17.6492 19.9598H24.1942C26.3739 19.9501 28.1465 18.1762 28.1465 16.0038C28.1465 13.8315 26.3775 12.0576 24.2027 12.0479H17.6492L13.0395 7.45891C12.296 6.71535 11.307 6.3059 10.256 6.3059C9.20507 6.3059 8.20271 6.71899 7.45307 7.46985C5.91126 9.01287 5.9137 11.5254 7.46036 13.0721L10.4055 16.0051L7.46279 18.9344C6.71072 19.6852 6.29641 20.6827 6.2952 21.7422C6.29398 22.7992 6.70464 23.7918 7.45186 24.5403C8.20271 25.2911 9.19778 25.7042 10.2548 25.7042L10.256 25.703Z" fill="var(--logo-mark-color, #003655)"/>
<path d="M21.9065 28.9549C20.0816 28.9549 18.3624 28.2624 17.0502 27.0012H17.0478L16.9457 26.9004L13.0663 23.038H7.53332C5.65375 23.0295 3.89082 22.2956 2.56649 20.9689C1.24217 19.6434 0.513184 17.8792 0.513184 16.0045C0.513184 14.1298 1.24217 12.3656 2.56771 11.0389C3.89203 9.71335 5.65496 8.97829 7.5321 8.96979H13.0663L17.0466 5.00654H17.049C18.3612 3.74539 20.0804 3.05286 21.9053 3.05286C21.9077 3.05286 21.9113 3.05286 21.9138 3.05286C23.7897 3.05529 25.5551 3.78913 26.8855 5.11832C29.6277 7.86052 29.6228 12.328 26.8745 15.0763L25.9438 16.0033L26.8733 16.9291C29.6228 19.6786 29.6277 24.1461 26.8855 26.8883C25.5551 28.2187 23.7897 28.9513 21.9138 28.9537C21.9113 28.9537 21.9077 28.9537 21.9053 28.9537L21.9065 28.9549ZM17.4864 26.1568L17.5885 26.2577C18.7415 27.4107 20.2748 28.0461 21.9053 28.0461C21.9077 28.0461 21.9101 28.0461 21.9126 28.0461C23.5467 28.0437 25.0836 27.4046 26.2427 26.2467C28.6302 23.8593 28.6253 19.9678 26.2318 17.5742L24.656 16.0045L26.233 14.4348C28.6265 12.0412 28.6314 8.1509 26.2427 5.76347C25.0849 4.6056 23.5467 3.96652 21.9126 3.96409C20.2772 3.96409 18.7439 4.59709 17.5885 5.75253L17.4864 5.85338L13.4417 9.88102H7.53332C4.16419 9.8956 1.42199 12.6427 1.42199 16.0057C1.42199 19.3688 4.16419 22.1158 7.53575 22.1304H13.4417L17.4864 26.1581V26.1568Z" fill="var(--logo-mark-color, #003655)"/>
<path d="M21.7315 27.2109C20.2771 27.2109 18.9103 26.6447 17.8824 25.6156L17.6188 25.3544L13.7163 21.4677H7.78354C4.77769 21.4555 2.33316 19.0049 2.33316 16.0052C2.33316 13.0054 4.78012 10.5548 7.78719 10.5426H13.7163L17.8836 6.39471C18.9115 5.36684 20.2784 4.80066 21.7327 4.80066C23.187 4.80066 24.566 5.37048 25.6012 6.40564C27.731 8.5355 27.7262 12.0067 25.5902 14.1426L23.7192 16.0064L25.5927 17.8714C26.6278 18.9065 27.1989 20.2807 27.2001 21.7411C27.2013 23.2015 26.6339 24.5732 25.6012 25.6059C24.566 26.6411 23.1919 27.2109 21.7327 27.2109H21.7315ZM17.8496 25.0337L17.8958 25.0786L18.157 25.3398C19.112 26.2948 20.3816 26.8209 21.7315 26.8209C23.0813 26.8209 24.3631 26.2912 25.3254 25.3301C26.284 24.3715 26.8113 23.097 26.8101 21.7411C26.8089 20.3839 26.2779 19.107 25.3169 18.146L23.1664 16.0052L25.3144 13.8656C27.2985 11.8815 27.3033 8.65821 25.3254 6.68023C24.3631 5.71797 23.0874 5.18945 21.7315 5.18945C20.3756 5.18945 19.112 5.71554 18.157 6.67051L17.8496 6.97547L13.8754 10.9326H7.78719C4.99396 10.9448 2.72195 13.2204 2.72195 16.0064C2.72195 18.7923 4.99274 21.068 7.78354 21.0801H13.8766L17.8496 25.0361V25.0337Z" fill="var(--logo-mark-color, #003655)"/>
<path d="M21.7314 26.093C20.5759 26.093 19.4897 25.6435 18.6721 24.8258L18.1557 24.3118L14.1779 20.351H7.78344C5.39358 20.3413 3.45084 18.3913 3.45084 16.0051C3.45084 13.6188 5.39844 11.67 7.79195 11.6591H14.1779L18.6721 7.18433C19.4897 6.36665 20.5771 5.91589 21.7326 5.91589C22.888 5.91589 23.9876 6.37029 24.8113 7.19405C26.5062 8.88894 26.5014 11.6506 24.8004 13.3503L22.1347 16.0038L24.8028 18.661C25.6266 19.4847 26.0798 20.5782 26.0822 21.741C26.0834 22.9013 25.6327 23.9935 24.8113 24.8148C23.9876 25.6386 22.8941 26.093 21.7326 26.093H21.7314ZM18.3865 23.9923L18.4339 24.036L18.9479 24.55C19.6914 25.2935 20.6804 25.703 21.7314 25.703C22.7823 25.703 23.7847 25.2899 24.5343 24.539C25.2815 23.7918 25.6922 22.798 25.691 21.741C25.6898 20.6827 25.2767 19.6864 24.527 18.9368L21.5819 16.0038L24.5246 13.0745C26.0725 11.5267 26.0773 9.01165 24.5355 7.46985C23.7847 6.71899 22.7896 6.3059 21.7326 6.3059C20.6756 6.3059 19.6926 6.71535 18.9479 7.46013L18.3999 8.00565L14.3395 12.0491H7.79438C5.61471 12.0588 3.84206 13.8327 3.84206 16.0051C3.84206 18.1774 5.61106 19.9513 7.78587 19.961H14.3395L18.3878 23.9923H18.3865Z" fill="var(--logo-mark-color, #003655)"/>
<path d="M15.9943 31.4852C14.1196 31.4852 12.3555 30.7562 11.0287 29.4307C9.7032 28.1063 8.96814 26.3434 8.95964 24.4663V18.9321L4.99881 14.9542V14.9518C2.3611 12.2072 2.39877 7.82353 5.10816 5.11291C7.85036 2.37071 12.3178 2.37557 15.0661 5.12385L15.9931 6.05452L16.9189 5.12506C19.6684 2.37557 24.1359 2.37071 26.8781 5.11291C29.5875 7.82231 29.6264 12.2059 26.9887 14.9518V14.9542L26.8903 15.0538L23.0278 18.9333V24.4663C23.0193 26.3458 22.2855 28.1088 20.9587 29.4331C19.632 30.7574 17.8691 31.4876 15.9931 31.4876L15.9943 31.4852ZM5.83958 14.5095L9.86844 18.5566V24.4651C9.88302 27.8342 12.6301 30.5764 15.9931 30.5764C19.3562 30.5764 22.1033 27.8342 22.1178 24.4626V18.5566L26.2463 14.4099C28.6289 12.0273 28.624 8.14428 26.2354 5.75564C23.848 3.36821 19.9564 3.37307 17.5629 5.76657L15.9931 7.34239L14.4234 5.76536C12.0299 3.37185 8.13953 3.36699 5.7521 5.75564C3.36346 8.14428 3.3586 12.0273 5.74116 14.4099L5.84079 14.5108L5.83958 14.5095Z" fill="var(--logo-mark-color, #003655)"/>
<path d="M15.9946 29.6661C12.9948 29.6661 10.5442 27.2191 10.532 24.2121V18.283L6.3841 14.1156C5.3538 13.0853 4.78762 11.716 4.79005 10.2593C4.79126 8.80253 5.3623 7.43083 6.39503 6.39688C7.42533 5.36658 8.79582 4.79797 10.2538 4.79797C11.7118 4.79797 13.0944 5.36901 14.132 6.4066L15.9958 8.27888L17.8608 6.40539C18.8971 5.36901 20.2737 4.79797 21.7377 4.79797C23.2018 4.79797 24.565 5.36537 25.5965 6.39688C26.6305 7.43083 27.2003 8.80253 27.2015 10.2593C27.2027 11.716 26.6365 13.0853 25.6062 14.1156L25.3426 14.3817L21.4583 18.283V24.2157C21.4462 27.2216 18.9955 29.6661 15.9958 29.6661H15.9946ZM6.95027 14.1351L10.9196 18.1226V24.2109C10.9318 27.0041 13.2074 29.2761 15.9933 29.2761C18.7793 29.2761 21.0549 27.0053 21.0671 24.2145V18.1214L25.3292 13.8398C26.2854 12.8836 26.8115 11.6116 26.8103 10.2593C26.8091 8.90581 26.2793 7.6313 25.3195 6.67147C24.3621 5.71407 23.09 5.18677 21.7365 5.18677C20.383 5.18677 19.0988 5.7165 18.1353 6.67997L15.9946 8.83048L13.855 6.68119C12.8915 5.71771 11.6121 5.18677 10.2526 5.18677C8.89302 5.18677 7.62702 5.71407 6.66961 6.67147C5.70978 7.6313 5.18005 8.90581 5.17884 10.2593C5.17762 11.6116 5.70249 12.8824 6.65989 13.8398L6.95149 14.1338L6.95027 14.1351Z" fill="var(--logo-mark-color, #003655)"/>
<path d="M15.9945 28.5482C13.6083 28.5482 11.6595 26.6006 11.6486 24.2071V17.8212L7.1738 13.327C6.35491 12.5081 5.90415 11.4195 5.90537 10.2616C5.90658 9.10254 6.36098 8.01027 7.18352 7.18774C8.00363 6.36763 9.09347 5.91687 10.2513 5.91687C11.4092 5.91687 12.5124 6.37249 13.3398 7.19867L15.9933 9.86433L18.6505 7.19624C19.4754 6.37127 20.5701 5.91809 21.7353 5.91809C22.9005 5.91809 23.9842 6.37006 24.8031 7.18895C25.6256 8.01149 26.0801 9.10375 26.0813 10.2628C26.0825 11.4207 25.6329 12.5081 24.814 13.327L24.2843 13.8592L20.3393 17.8224V24.2168C20.3296 26.6067 18.3795 28.5494 15.9933 28.5494L15.9945 28.5482ZM7.98784 13.5931L12.0386 17.6608V24.2059C12.0483 26.3856 13.8222 28.1582 15.9945 28.1582C18.1669 28.1582 19.9408 26.3892 19.9505 24.2144V17.6608L24.5395 13.0512C25.2842 12.3064 25.6937 11.3162 25.6925 10.2628C25.6913 9.20703 25.2782 8.21317 24.5285 7.46353C23.7825 6.71754 22.7911 6.30688 21.7353 6.30688C20.6795 6.30688 19.6771 6.71997 18.9263 7.47082L15.9933 10.4159L13.064 7.47325C12.3107 6.71997 11.312 6.30566 10.2513 6.30566C9.19066 6.30566 8.2041 6.71632 7.45811 7.46232C6.70847 8.21196 6.29537 9.20581 6.29416 10.2616C6.29294 11.315 6.70239 12.3052 7.44839 13.0512L7.98662 13.5919L7.98784 13.5931Z" fill="var(--logo-mark-color, #003655)"/>
<path d="M41.083 10.5477L39.5339 10.3266V9.40442H45.022V10.3266L43.1291 10.5477V22.0232L48.0619 21.8567L49.1906 18.7573L50.3569 18.9238L49.6875 23.1118H39.4963V22.2078L41.083 22.0232V10.5477Z" fill="var(--color-content-default, #282727)"/>
<path d="M56.2619 23.3151C54.7189 23.3151 53.5404 22.8291 52.7239 21.8572C51.9208 20.8852 51.5187 19.5876 51.5187 17.9644C51.5187 16.894 51.7289 15.9536 52.1492 15.142C52.5696 14.3304 53.1565 13.7035 53.9085 13.26C54.674 12.8177 55.5402 12.5954 56.5086 12.5954C57.6944 12.5954 58.6117 12.9149 59.2617 13.5552C59.9251 14.1822 60.275 15.0861 60.3127 16.2671C60.3127 17.0179 60.2677 17.5889 60.179 17.9826H53.6011C53.6267 19.2 53.9195 20.1841 54.4808 20.935C55.0421 21.6725 55.8379 22.0418 56.8706 22.0418C57.3809 22.0418 57.9095 21.9556 58.4574 21.783C59.0187 21.5984 59.4513 21.3833 59.7574 21.1379L60.1207 21.9495C59.7514 22.3189 59.2034 22.6384 58.4768 22.9093C57.7503 23.1803 57.0104 23.3151 56.2583 23.3151H56.2619ZM58.212 17.0045C58.2496 16.7458 58.2691 16.4821 58.2691 16.2112C58.2569 15.4117 58.0783 14.7848 57.7333 14.3292C57.4016 13.8614 56.8731 13.6281 56.1465 13.6281C55.42 13.6281 54.8149 13.8869 54.3678 14.4033C53.9341 14.9196 53.6862 15.7871 53.6218 17.0045H58.2108H58.212Z" fill="var(--color-content-default, #282727)"/>
<path d="M66.5284 28.0935C64.8967 28.0935 63.7109 27.842 62.9722 27.3366C62.2456 26.8445 61.8824 26.1617 61.8824 25.2882C61.8824 24.7475 62.0549 24.2494 62.3987 23.7937C62.7559 23.3381 63.1763 22.9943 63.6611 22.761C63.0742 22.4415 62.7814 21.9251 62.7814 21.2107C62.7814 20.7685 62.9151 20.3493 63.1824 19.9556C63.4497 19.562 63.8008 19.2607 64.2346 19.0517C63.5967 18.7808 63.1058 18.3932 62.762 17.889C62.4303 17.3847 62.2651 16.7882 62.2651 16.0993C62.2651 15.4104 62.4692 14.7653 62.8774 14.2355C63.2978 13.707 63.8458 13.3012 64.5213 13.0181C65.2102 12.735 65.9367 12.5941 66.701 12.5941C67.9888 12.5941 68.996 12.8529 69.7226 13.3692C69.9133 13.1846 70.2074 13.006 70.6022 12.8347C70.9971 12.6621 71.4187 12.5759 71.8646 12.5759H72.5146V14.1991H70.4115C70.7177 14.6547 70.8708 15.1832 70.8708 15.7858C70.8708 16.5112 70.68 17.1575 70.2973 17.7225C69.9279 18.2765 69.4055 18.7066 68.73 19.014C68.0666 19.3214 67.3145 19.4757 66.4738 19.4757C65.9258 19.4757 65.4349 19.4198 65.0012 19.3093C64.8226 19.4818 64.6756 19.6725 64.5614 19.8815C64.4472 20.0905 64.3888 20.2934 64.3888 20.4902C64.3888 20.9325 64.5419 21.2411 64.8481 21.4124C65.1543 21.5728 65.7022 21.6517 66.492 21.6517H68.6522C69.889 21.6517 70.8064 21.8789 71.4053 22.3346C72.0043 22.7902 72.3044 23.4353 72.3044 24.2724C72.3044 24.9735 72.0432 25.6126 71.5208 26.1909C70.9983 26.7814 70.29 27.2431 69.3982 27.5747C68.5186 27.9198 67.5624 28.0911 66.5296 28.0911L66.5284 28.0935ZM66.6621 18.4624C68.1152 18.4624 68.8417 17.6326 68.8417 15.9717C68.8417 15.148 68.651 14.5453 68.2683 14.1638C67.8989 13.7702 67.3376 13.5734 66.5855 13.5734C65.8845 13.5734 65.3305 13.7641 64.9222 14.1456C64.514 14.515 64.3099 15.1115 64.3099 15.9353C64.3099 16.7104 64.5006 17.3252 64.8833 17.7808C65.2782 18.2364 65.8711 18.4636 66.6621 18.4636V18.4624ZM66.701 27.0231C67.3254 27.0231 67.9123 26.9308 68.4602 26.7461C69.0216 26.5736 69.4735 26.31 69.8174 25.9528C70.1612 25.6077 70.3337 25.2019 70.3337 24.7353C70.3337 24.1813 70.1806 23.7755 69.8745 23.5179C69.5683 23.2725 68.9754 23.1486 68.0957 23.1486H65.8395C65.3292 23.1486 64.9283 23.1182 64.6343 23.0563C64.1118 23.6103 63.8506 24.2311 63.8506 24.92C63.8506 25.6089 64.0669 26.1314 64.5006 26.4886C64.9344 26.8458 65.667 27.0231 66.6997 27.0231H66.701Z" fill="var(--color-content-default, #282727)"/>
<path d="M73.5729 20.3445C73.5729 19.1879 74.1719 18.3398 75.3698 17.7979C76.5678 17.2439 78.0853 16.9487 79.9211 16.9122V16.3959C79.9211 15.8175 79.8579 15.3631 79.7304 15.0302C79.6028 14.6985 79.3805 14.458 79.0609 14.311C78.7547 14.1506 78.3149 14.0716 77.7415 14.0716C77.0914 14.0716 76.5046 14.1639 75.9822 14.3486C75.4719 14.5211 74.9628 14.7362 74.4525 14.9938L73.975 14.0339C74.1403 13.8991 74.4464 13.7205 74.8923 13.4994C75.3382 13.2782 75.8546 13.0814 76.4414 12.9089C77.0283 12.7363 77.6139 12.6501 78.2007 12.6501C79.1059 12.6501 79.8191 12.7728 80.3427 13.0194C80.8785 13.2527 81.26 13.6342 81.4897 14.1627C81.7193 14.6912 81.8335 15.3984 81.8335 16.2841V22.2071H82.9622V23.0187C82.7071 23.0807 82.3827 23.1414 81.9866 23.2034C81.6039 23.2653 81.2661 23.2957 80.9733 23.2957C80.6161 23.2957 80.3743 23.2398 80.2467 23.1293C80.1192 23.0308 80.056 22.8036 80.056 22.4464V21.8377C79.6733 22.2071 79.2019 22.5449 78.6405 22.8522C78.0926 23.1596 77.4681 23.3139 76.767 23.3139C75.8497 23.3139 75.0843 23.0612 74.472 22.557C73.873 22.0406 73.5729 21.3019 73.5729 20.3433V20.3445ZM77.5884 22.0601C77.9201 22.0601 78.3028 21.9617 78.7353 21.7648C79.1691 21.568 79.5639 21.3347 79.9211 21.0638V17.8903C78.5312 17.8903 77.4802 18.0993 76.7658 18.5172C76.0648 18.923 75.7137 19.4576 75.7137 20.1222C75.7137 20.7868 75.8789 21.2788 76.2106 21.5984C76.5544 21.9058 77.0137 22.0601 77.5872 22.0601H77.5884Z" fill="var(--color-content-default, #282727)"/>
<path d="M84.0617 18.0567C84.0617 17.0361 84.2658 16.1128 84.6741 15.289C85.0944 14.4652 85.7068 13.8128 86.5099 13.3329C87.3263 12.8408 88.3008 12.5954 89.4355 12.5954C89.9835 12.5954 90.4549 12.644 90.851 12.7424C91.2459 12.8408 91.7173 12.9757 92.2664 13.1482L92.1899 15.99H90.947L90.5266 14.108C90.45 13.7642 89.9653 13.5917 89.0735 13.5917C88.1817 13.5917 87.4734 13.9428 86.9509 14.6438C86.4406 15.3327 86.1855 16.3169 86.1855 17.5962C86.1855 19.0481 86.4722 20.155 87.0457 20.9168C87.6325 21.6676 88.3907 22.0418 89.3213 22.0418C89.8571 22.0418 90.3601 21.9616 90.8315 21.8025C91.3163 21.6421 91.7306 21.4514 92.0745 21.2302L92.4378 21.9677C92.0939 22.3128 91.5836 22.6262 90.9081 22.9081C90.2447 23.1791 89.5692 23.3139 88.8815 23.3139C87.8366 23.3139 86.9497 23.0867 86.2231 22.6311C85.5087 22.1755 84.9681 21.5546 84.5975 20.7673C84.2403 19.9679 84.0617 19.0639 84.0617 18.0555V18.0567Z" fill="var(--color-content-default, #282727)"/>
<path d="M95.6442 27.7056C95.4279 27.7056 95.2105 27.6934 94.9942 27.6691C94.7901 27.6448 94.6431 27.6072 94.5544 27.5586V25.9536C94.6309 26.0022 94.7779 26.0399 94.9942 26.0642C95.2238 26.0885 95.4401 26.1006 95.6442 26.1006C96.2565 26.1006 96.7911 25.8916 97.2504 25.4737C97.7218 25.0679 98.175 24.2806 98.6075 23.1118H97.6902L94.0574 13.9788L93.1778 13.7394V12.8719H97.7862V13.7394L96.3136 13.9606L98.1871 19.4037L99.0668 22.0973L99.8893 19.3854L101.592 13.9606L100.311 13.7394V12.8719H104.154V13.7394L103.198 13.9606C101.324 19.496 100.221 22.6379 99.8893 23.3888C99.4556 24.447 99.0607 25.2708 98.7035 25.8613C98.3463 26.4639 97.9259 26.9195 97.4411 27.2269C96.9564 27.5464 96.3574 27.7068 95.6442 27.7068V27.7056Z" fill="var(--color-content-default, #282727)"/>
<path d="M106.453 10.7871L105.037 10.5477V9.40442H110.85V10.5477L109.243 10.7871V15.4186H115.056V10.7871L113.583 10.5477V9.40442H119.319V10.5477L117.866 10.7871V21.8203L119.319 22.0049V23.1118H113.564V22.0049L115.055 21.8203V16.8206H109.242V21.8203L110.848 22.0049V23.1118H104.997V22.0049L106.45 21.8203V10.7871H106.453Z" fill="var(--color-content-default, #282727)"/>
<path d="M135.477 26.6356C134.916 26.6356 134.381 26.5433 133.871 26.3586C133.361 26.1861 132.903 25.971 132.494 25.7135C132.086 25.4547 131.577 25.1108 130.965 24.6807C130.366 24.2628 129.875 23.936 129.492 23.7027C129.123 23.4694 128.74 23.2969 128.345 23.1863C127.809 23.2726 127.344 23.3151 126.949 23.3151C124.884 23.3151 123.329 22.6882 122.284 21.4331C121.251 20.178 120.735 18.4686 120.735 16.3035C120.735 14.8893 121.002 13.6463 121.538 12.5772C122.086 11.5068 122.851 10.683 123.833 10.1047C124.815 9.52635 125.942 9.23718 127.218 9.23718C129.334 9.23718 130.915 9.83981 131.96 11.0451C133.005 12.2382 133.527 13.9112 133.527 16.0629C133.527 17.5877 133.209 18.923 132.571 20.0663C131.946 21.1974 131.08 22.0467 129.971 22.6129C130.468 22.6748 130.953 22.8036 131.424 23.0004C131.909 23.1973 132.494 23.4682 133.183 23.812C133.935 24.1814 134.56 24.4572 135.057 24.6419C135.567 24.8387 136.064 24.9371 136.549 24.9371C136.893 24.9371 137.179 24.9128 137.409 24.863L137.658 25.6928C137.377 26.0245 137.059 26.2651 136.702 26.4121C136.358 26.5591 135.95 26.6332 135.478 26.6332L135.477 26.6356ZM127.102 22.19C128.135 22.19 128.944 21.6676 129.531 20.6215C130.118 19.5633 130.411 18.0445 130.411 16.0641C130.411 14.0837 130.13 12.7181 129.57 11.7838C129.009 10.8361 128.199 10.3635 127.141 10.3635C126.083 10.3635 125.28 10.8616 124.694 11.8579C124.107 12.8542 123.815 14.3304 123.815 16.2865C123.815 18.2426 124.101 19.6872 124.675 20.6956C125.248 21.6919 126.057 22.19 127.104 22.19H127.102Z" fill="var(--color-content-default, #282727)"/>
</svg>
