<svg width="16" height="16" viewBox="0 0 16 16" fill="none" xmlns="http://www.w3.org/2000/svg">
<path d="M6.52 7.43992L5.57333 8.38658C5.12 7.92658 4.68 7.33325 4.38 6.42659L5.67333 6.09992C5.88667 6.69325 6.18667 7.09992 6.52 7.43992ZM7.33333 3.99992L4.66667 1.33325L2 3.99992H4.01333C4.02667 4.53992 4.06667 5.02659 4.14 5.44659L5.43333 5.11992C5.38667 4.79992 5.35333 4.41992 5.34667 3.99992H7.33333ZM14 3.99992L11.3333 1.33325L8.66667 3.99992H10.66C10.5933 6.45325 9.80667 7.16658 8.96667 7.91992C8.63333 8.21325 8.29333 8.53325 8 8.95325C7.77333 8.62659 7.51333 8.36658 7.24667 8.12658L6.30667 9.06659C6.92667 9.63325 7.33333 10.0933 7.33333 11.3333V14.6666H8.66667V11.3333C8.66667 9.98658 9.14 9.55992 9.86 8.91325C10.78 8.08658 11.9133 7.05992 11.9933 3.99992H14Z" fill="#282727"/>
</svg>
