<svg width="16" height="16" viewBox="0 0 16 16" fill="none" xmlns="http://www.w3.org/2000/svg">
<path d="M13.0008 5L13.6275 3.62667L15.0008 3L13.6275 2.37333L13.0008 1L12.3742 2.37333L11.0008 3L12.3742 3.62667L13.0008 5Z" fill="#282727"/>
<path d="M5.33417 5L5.96083 3.62667L7.33417 3L5.96083 2.37333L5.33417 1L4.7075 2.37333L3.33417 3L4.7075 3.62667L5.33417 5Z" fill="#282727"/>
<path d="M13.0008 8.66667L12.3742 10.04L11.0008 10.6667L12.3742 11.2933L13.0008 12.6667L13.6275 11.2933L15.0008 10.6667L13.6275 10.04L13.0008 8.66667Z" fill="#282727"/>
<path d="M9.20895 9.29854L6.70895 6.79854L0.668945 12.8385V15.3385H3.16895L9.20895 9.29854ZM2.00228 14.0052V13.3919L6.70895 8.68521L7.32228 9.29854L2.61561 14.0052H2.00228Z" fill="#282727"/>
<path d="M11.1423 7.36521C11.4023 7.10521 11.4023 6.68521 11.1423 6.42521L9.58228 4.86521C9.44895 4.73188 9.28228 4.67188 9.10895 4.67188C8.94228 4.67188 8.76895 4.73854 8.64228 4.86521L7.42228 6.08521L9.92228 8.58521L11.1423 7.36521Z" fill="#282727"/>
</svg>
