<svg width="16" height="16" viewBox="0 0 16 16" fill="none" xmlns="http://www.w3.org/2000/svg">
<path d="M14 8.14667C14 4.48667 11.16 2 8.00004 2C4.87337 2 2.00004 4.43333 2.00004 8.18667C1.60004 8.41333 1.33337 8.84 1.33337 9.33333V10.6667C1.33337 11.4 1.93337 12 2.66671 12H3.33337V7.93333C3.33337 5.35333 5.42004 3.26667 8.00004 3.26667C10.58 3.26667 12.6667 5.35333 12.6667 7.93333V12.6667H7.33337V14H12.6667C13.4 14 14 13.4 14 12.6667V11.8533C14.3934 11.6467 14.6667 11.24 14.6667 10.76V9.22667C14.6667 8.76 14.3934 8.35333 14 8.14667Z" fill="#282727"/>
<path d="M6.00004 9.33333C6.36823 9.33333 6.66671 9.03486 6.66671 8.66667C6.66671 8.29848 6.36823 8 6.00004 8C5.63185 8 5.33337 8.29848 5.33337 8.66667C5.33337 9.03486 5.63185 9.33333 6.00004 9.33333Z" fill="#282727"/>
<path d="M10 9.33333C10.3682 9.33333 10.6667 9.03486 10.6667 8.66667C10.6667 8.29848 10.3682 8 10 8C9.63185 8 9.33337 8.29848 9.33337 8.66667C9.33337 9.03486 9.63185 9.33333 10 9.33333Z" fill="#282727"/>
<path d="M12 7.35333C11.68 5.45333 10.0267 4 8.03337 4C6.01337 4 3.84004 5.67333 4.01337 8.3C5.66004 7.62667 6.90004 6.16 7.25337 4.37333C8.12671 6.12667 9.92004 7.33333 12 7.35333Z" fill="#282727"/>
</svg>
