<svg width="16" height="16" viewBox="0 0 16 16" fill="none" xmlns="http://www.w3.org/2000/svg">
<path fill-rule="evenodd" clip-rule="evenodd" d="M8.0002 4.73076L3.51599 6.2866V9.44493C3.51599 12.0639 5.42739 14.5066 8.0002 15.103C10.573 14.5066 12.4844 12.0639 12.4844 9.44493V6.2866L8.0002 4.73076ZM6.59889 7.96638C6.59889 7.19216 7.22598 6.56507 8.0002 6.56507C8.77443 6.56507 9.40152 7.19216 9.40152 7.96638C9.40152 8.74061 8.77443 9.3677 8.0002 9.3677C7.22598 9.3677 6.59889 8.74061 6.59889 7.96638ZM5.19757 11.4697C5.19757 10.5378 7.06482 10.0684 8.0002 10.0684C8.93558 10.0684 10.8028 10.5378 10.8028 11.4697V12.1703H5.19757V11.4697Z" fill="#282727"/>
<path d="M10.8028 4.52491V3.69961C10.8028 2.15255 9.54726 0.896973 8.0002 0.896973C6.45315 0.896973 5.19757 2.15255 5.19757 3.69961V4.52495L6.31862 4.10456V3.69961C6.31862 2.76913 7.06973 2.01803 8.0002 2.01803C8.93068 2.01803 9.68178 2.76913 9.68178 3.69961V4.10452L10.8028 4.52491Z" fill="#282727"/>
</svg>
