<svg width="16" height="16" viewBox="0 0 16 16" fill="none" xmlns="http://www.w3.org/2000/svg">
<path d="M7.99998 2.66683C9.28665 2.66683 11.3333 3.60016 11.3333 6.10016C11.3333 7.54016 10.1866 9.2135 7.99998 10.9802C5.81331 9.2135 4.66665 7.5335 4.66665 6.10016C4.66665 3.60016 6.71331 2.66683 7.99998 2.66683ZM7.99998 1.3335C5.81998 1.3335 3.33331 2.9735 3.33331 6.10016C3.33331 8.18016 4.88665 10.3735 7.99998 12.6668C11.1133 10.3735 12.6666 8.18016 12.6666 6.10016C12.6666 2.9735 10.18 1.3335 7.99998 1.3335Z" fill="#282727"/>
<path d="M7.99998 4.66683C7.26665 4.66683 6.66665 5.26683 6.66665 6.00016C6.66665 6.7335 7.26665 7.3335 7.99998 7.3335C8.3536 7.3335 8.69274 7.19302 8.94279 6.94297C9.19284 6.69292 9.33331 6.35378 9.33331 6.00016C9.33331 5.64654 9.19284 5.3074 8.94279 5.05735C8.69274 4.8073 8.3536 4.66683 7.99998 4.66683ZM3.33331 13.3335H12.6666V14.6668H3.33331V13.3335Z" fill="#282727"/>
</svg>
