<svg width="16" height="16" viewBox="0 0 16 16" fill="none" xmlns="http://www.w3.org/2000/svg">
<path d="M7.33335 11.9998C7.33335 12.7332 6.73335 13.3332 6.00002 13.3332C5.26669 13.3332 4.66669 12.7332 4.66669 11.9998C4.66669 11.2665 5.26669 10.6665 6.00002 10.6665C6.73335 10.6665 7.33335 11.2665 7.33335 11.9998ZM6.00002 6.6665C5.26669 6.6665 4.66669 7.2665 4.66669 7.99984C4.66669 8.73317 5.26669 9.33317 6.00002 9.33317C6.73335 9.33317 7.33335 8.73317 7.33335 7.99984C7.33335 7.2665 6.73335 6.6665 6.00002 6.6665ZM6.00002 2.6665C5.26669 2.6665 4.66669 3.2665 4.66669 3.99984C4.66669 4.73317 5.26669 5.33317 6.00002 5.33317C6.73335 5.33317 7.33335 4.73317 7.33335 3.99984C7.33335 3.2665 6.73335 2.6665 6.00002 2.6665ZM10 5.33317C10.7334 5.33317 11.3334 4.73317 11.3334 3.99984C11.3334 3.2665 10.7334 2.6665 10 2.6665C9.26669 2.6665 8.66669 3.2665 8.66669 3.99984C8.66669 4.73317 9.26669 5.33317 10 5.33317ZM10 6.6665C9.26669 6.6665 8.66669 7.2665 8.66669 7.99984C8.66669 8.73317 9.26669 9.33317 10 9.33317C10.7334 9.33317 11.3334 8.73317 11.3334 7.99984C11.3334 7.2665 10.7334 6.6665 10 6.6665ZM10 10.6665C9.26669 10.6665 8.66669 11.2665 8.66669 11.9998C8.66669 12.7332 9.26669 13.3332 10 13.3332C10.7334 13.3332 11.3334 12.7332 11.3334 11.9998C11.3334 11.2665 10.7334 10.6665 10 10.6665Z" fill="#282727"/>
</svg>
