<svg width="16" height="16" viewBox="0 0 16 16" fill="none" xmlns="http://www.w3.org/2000/svg">
<path d="M3.99998 7.33317C3.26665 7.33317 2.66665 6.73317 2.66665 5.99984C2.66665 5.2665 3.26665 4.6665 3.99998 4.6665C4.73331 4.6665 5.33331 5.2665 5.33331 5.99984C5.33331 6.73317 4.73331 7.33317 3.99998 7.33317ZM9.33331 5.99984C9.33331 5.2665 8.73331 4.6665 7.99998 4.6665C7.26665 4.6665 6.66665 5.2665 6.66665 5.99984C6.66665 6.73317 7.26665 7.33317 7.99998 7.33317C8.73331 7.33317 9.33331 6.73317 9.33331 5.99984ZM13.3333 5.99984C13.3333 5.2665 12.7333 4.6665 12 4.6665C11.2666 4.6665 10.6666 5.2665 10.6666 5.99984C10.6666 6.73317 11.2666 7.33317 12 7.33317C12.7333 7.33317 13.3333 6.73317 13.3333 5.99984ZM10.6666 9.99984C10.6666 10.7332 11.2666 11.3332 12 11.3332C12.7333 11.3332 13.3333 10.7332 13.3333 9.99984C13.3333 9.2665 12.7333 8.6665 12 8.6665C11.2666 8.6665 10.6666 9.2665 10.6666 9.99984ZM9.33331 9.99984C9.33331 9.2665 8.73331 8.6665 7.99998 8.6665C7.26665 8.6665 6.66665 9.2665 6.66665 9.99984C6.66665 10.7332 7.26665 11.3332 7.99998 11.3332C8.73331 11.3332 9.33331 10.7332 9.33331 9.99984ZM5.33331 9.99984C5.33331 9.2665 4.73331 8.6665 3.99998 8.6665C3.26665 8.6665 2.66665 9.2665 2.66665 9.99984C2.66665 10.7332 3.26665 11.3332 3.99998 11.3332C4.73331 11.3332 5.33331 10.7332 5.33331 9.99984Z" fill="#282727"/>
</svg>
