<svg width="16" height="16" viewBox="0 0 16 16" fill="none" xmlns="http://www.w3.org/2000/svg">
<path d="M2.66699 13.876H12V15.21H2.66699C1.93366 15.21 1.33301 14.6093 1.33301 13.876V4.54297H2.66699V13.876Z" fill="#282727"/>
<path d="M12.0264 9.88281H9.71191V7.56836H12.0264V9.88281Z" fill="#282727"/>
<path fill-rule="evenodd" clip-rule="evenodd" d="M6.99023 1.87598H11.6973V0.790039H13.0264V1.87598H13.333C14.0663 1.87598 14.667 2.47663 14.667 3.20996V11.21C14.6668 11.9431 14.0662 12.543 13.333 12.543H5.33301C4.59992 12.5428 4.00022 11.943 4 11.21V3.20996C4 2.47671 4.59979 1.87611 5.33301 1.87598H5.66113V0.790039H6.99023V1.87598ZM5.33301 11.21H13.333V5.87598H5.33301V11.21ZM5.33301 4.54297H13.333V3.20996H5.33301V4.54297Z" fill="#282727"/>
</svg>
