<svg width="16" height="16" viewBox="0 0 16 16" fill="none" xmlns="http://www.w3.org/2000/svg">
<path d="M12.6666 9.33317V3.99984C12.6666 3.2665 12.0666 2.6665 11.3333 2.6665H1.99996C1.26663 2.6665 0.666626 3.2665 0.666626 3.99984V9.33317C0.666626 10.0665 1.26663 10.6665 1.99996 10.6665H11.3333C12.0666 10.6665 12.6666 10.0665 12.6666 9.33317ZM11.3333 9.33317H1.99996V3.99984H11.3333V9.33317ZM6.66663 4.6665C5.55996 4.6665 4.66663 5.55984 4.66663 6.6665C4.66663 7.77317 5.55996 8.6665 6.66663 8.6665C7.77329 8.6665 8.66663 7.77317 8.66663 6.6665C8.66663 5.55984 7.77329 4.6665 6.66663 4.6665ZM15.3333 4.6665V11.9998C15.3333 12.7332 14.7333 13.3332 14 13.3332H2.66663V11.9998H14V4.6665H15.3333Z" fill="#282727"/>
</svg>
