<svg width="16" height="16" viewBox="0 0 16 16" fill="none" xmlns="http://www.w3.org/2000/svg">
<path d="M11.3333 4.6665H8.66665V5.99984H11.3333C12.4333 5.99984 13.3333 6.89984 13.3333 7.99984C13.3333 9.09984 12.4333 9.99984 11.3333 9.99984H8.66665V11.3332H11.3333C13.1733 11.3332 14.6666 9.83984 14.6666 7.99984C14.6666 6.15984 13.1733 4.6665 11.3333 4.6665ZM7.33331 9.99984H4.66665C3.56665 9.99984 2.66665 9.09984 2.66665 7.99984C2.66665 6.89984 3.56665 5.99984 4.66665 5.99984H7.33331V4.6665H4.66665C2.82665 4.6665 1.33331 6.15984 1.33331 7.99984C1.33331 9.83984 2.82665 11.3332 4.66665 11.3332H7.33331V9.99984ZM5.33331 7.33317H10.6666V8.6665H5.33331V7.33317Z" fill="#282727"/>
</svg>
