<svg width="16" height="16" viewBox="0 0 16 16" fill="none" xmlns="http://www.w3.org/2000/svg">
<path d="M4.66671 1.3335C5.40004 1.3335 6.00004 1.9335 6.00004 2.66683C6.00004 3.40016 5.40004 4.00016 4.66671 4.00016C3.93337 4.00016 3.33337 3.40016 3.33337 2.66683C3.33337 1.9335 3.93337 1.3335 4.66671 1.3335ZM10.6667 6.3335C10.6667 6.88683 11.1134 7.3335 11.6667 7.3335C12.22 7.3335 12.6667 6.88683 12.6667 6.3335C12.6667 5.78016 12.22 5.3335 11.6667 5.3335C11.1134 5.3335 10.6667 5.78016 10.6667 6.3335ZM12.6667 8.00016H10.7734C10.3867 8.00683 10.0134 8.2135 9.80671 8.5735L9.19337 9.4535L6.81337 5.3335C6.56671 4.9135 6.12671 4.6735 5.67337 4.66683H3.66671C2.93337 4.66683 2.33337 5.26683 2.33337 6.00016V10.0002H3.33337V14.6668H6.66671V7.74016L8.35337 10.6668H9.82004L10.3334 9.9335V14.6668H13V11.3335H13.6667V9.00016C13.6667 8.4535 13.22 8.00016 12.6667 8.00016Z" fill="#282727"/>
</svg>
