<svg width="16" height="16" viewBox="0 0 16 16" fill="none" xmlns="http://www.w3.org/2000/svg">
<g clip-path="url(#clip0_1495_13965)">
<path d="M1.33282 7.99967C1.33282 4.31967 4.31949 1.33301 7.99949 1.33301C11.3651 1.33301 14.1507 3.83108 14.6022 7.07297C14.1596 6.87935 13.6799 6.75484 13.1768 6.71307C12.6015 4.38845 10.5025 2.66634 7.99949 2.66634C5.05282 2.66634 2.66616 5.05301 2.66616 7.99967C2.66616 9.29967 3.13282 10.4863 3.90616 11.413C5.03283 10.533 6.45283 9.99967 7.99949 9.99967C8.15241 9.99967 8.30409 10.0049 8.45437 10.0151C8.35169 10.3926 8.29689 10.7898 8.29689 11.1998C8.29689 11.2472 8.29762 11.2943 8.29907 11.3414C8.19996 11.3358 8.10008 11.333 7.99949 11.333C6.83949 11.333 5.77282 11.7063 4.89949 12.333C5.77282 12.9597 6.83949 13.333 7.99949 13.333C8.27238 13.333 8.5401 13.3123 8.80135 13.2726C9.03019 13.7131 9.32968 14.1109 9.68481 14.4512C9.14644 14.5916 8.58164 14.6663 7.99949 14.6663C4.31949 14.6663 1.33282 11.6797 1.33282 7.99967Z" fill="#282727"/>
<path fill-rule="evenodd" clip-rule="evenodd" d="M5.66616 6.33301C5.66616 5.04634 6.71283 3.99967 7.99949 3.99967C9.28616 3.99967 10.3328 5.04634 10.3328 6.33301C10.3328 7.61967 9.28616 8.66634 7.99949 8.66634C6.71283 8.66634 5.66616 7.61967 5.66616 6.33301ZM6.99949 6.33301C6.99949 6.88634 7.44616 7.33301 7.99949 7.33301C8.55283 7.33301 8.99949 6.88634 8.99949 6.33301C8.99949 5.77967 8.55283 5.33301 7.99949 5.33301C7.44616 5.33301 6.99949 5.77967 6.99949 6.33301Z" fill="#282727"/>
<path d="M15.32 11.1331C15.32 10.9865 15.3 10.8531 15.28 10.7131L16.04 10.0398L15.3733 8.88647L14.4067 9.21314C14.1933 9.03314 13.9533 8.89314 13.6867 8.79314L13.4867 7.7998H12.1533L11.9533 8.79314C11.6867 8.89314 11.4467 9.03314 11.2333 9.21314L10.2667 8.88647L9.60001 10.0398L10.36 10.7131C10.34 10.8531 10.32 10.9865 10.32 11.1331C10.32 11.2798 10.34 11.4131 10.36 11.5531L9.60001 12.2265L10.2667 13.3798L11.2333 13.0531C11.4467 13.2331 11.6867 13.3731 11.9533 13.4731L12.1533 14.4665H13.4867L13.6867 13.4731C13.9533 13.3731 14.1933 13.2331 14.4067 13.0531L15.3733 13.3798L16.04 12.2265L15.28 11.5531C15.3 11.4131 15.32 11.2798 15.32 11.1331ZM12.82 12.4665C12.0867 12.4665 11.4867 11.8665 11.4867 11.1331C11.4867 10.3998 12.0867 9.7998 12.82 9.7998C13.5533 9.7998 14.1533 10.3998 14.1533 11.1331C14.1533 11.8665 13.5533 12.4665 12.82 12.4665Z" fill="#282727"/>
</g>
<defs>
<clipPath id="clip0_1495_13965">
<rect width="16" height="16" fill="white"/>
</clipPath>
</defs>
</svg>
