<svg width="16" height="16" viewBox="0 0 16 16" fill="none" xmlns="http://www.w3.org/2000/svg">
<path d="M13.3334 5.99984V3.99984H12V5.99984H10V7.33317H12V9.33317H13.3334V7.33317H15.3334V5.99984H13.3334ZM6.00002 7.99984C7.47335 7.99984 8.66669 6.8065 8.66669 5.33317C8.66669 3.85984 7.47335 2.6665 6.00002 2.6665C4.52669 2.6665 3.33335 3.85984 3.33335 5.33317C3.33335 6.8065 4.52669 7.99984 6.00002 7.99984ZM6.00002 3.99984C6.73335 3.99984 7.33335 4.59984 7.33335 5.33317C7.33335 6.0665 6.73335 6.6665 6.00002 6.6665C5.26669 6.6665 4.66669 6.0665 4.66669 5.33317C4.66669 4.59984 5.26669 3.99984 6.00002 3.99984ZM10.26 9.7065C9.14002 9.13317 7.68669 8.6665 6.00002 8.6665C4.31335 8.6665 2.86002 9.13317 1.74002 9.7065C1.07335 10.0465 0.666687 10.7332 0.666687 11.4798V13.3332H11.3334V11.4798C11.3334 10.7332 10.9267 10.0465 10.26 9.7065ZM10 11.9998H2.00002V11.4798C2.00002 11.2265 2.13335 10.9998 2.34669 10.8932C3.14002 10.4865 4.42002 9.99984 6.00002 9.99984C7.58002 9.99984 8.86002 10.4865 9.65335 10.8932C9.86669 10.9998 10 11.2265 10 11.4798V11.9998Z" fill="#282727"/>
</svg>
