<svg width="16" height="16" viewBox="0 0 16 16" fill="none" xmlns="http://www.w3.org/2000/svg">
<path d="M11.3872 3.6702L10.0314 6.71535C9.72771 7.39746 9.67105 8.13118 9.82697 8.8136L6.17279 7.18665C6.80185 6.83914 7.29702 6.30065 7.59529 5.63072L8.95108 2.58557L11.3872 3.6702ZM13.7566 3.26561L7.6663 0.554034C7.33134 0.404898 6.93525 0.55694 6.78611 0.891907C6.63698 1.22687 6.78902 1.62296 7.12399 1.77209L7.73302 2.04325L6.37723 5.0884C5.92711 6.09939 4.74766 6.55214 3.73666 6.10202L3.19435 7.32008L6.83026 8.93889L4.93216 13.2021L5.27003 14.0823L6.15022 13.7444L8.04832 9.48121L11.7208 11.1163L12.2631 9.89823C11.2521 9.44811 10.7993 8.26866 11.2495 7.25767L12.6053 4.21251L13.2143 4.48367C13.5493 4.63281 13.9453 4.48077 14.0945 4.1458C14.2436 3.81083 14.0916 3.41475 13.7566 3.26561Z" fill="#282727"/>
</svg>
