<svg width="16" height="16" viewBox="0 0 16 16" fill="none" xmlns="http://www.w3.org/2000/svg">
<path fill-rule="evenodd" clip-rule="evenodd" d="M2.20325 0.984375L1.26044 1.92718L5.33335 6.0001C5.33335 7.10677 4.44002 8.0001 3.33335 8.0001V9.33343H7.31335V14.0001L7.98002 14.6668L8.64669 14.0001V9.33343H8.66669L13.7263 14.393L14.6691 13.4502L2.20325 0.984375ZM7.33335 8.0001L6.4694 7.13615C6.35786 7.4445 6.2003 7.73512 6.00002 8.0001H7.33335Z" fill="#282727"/>
<path d="M9.33335 6.0001C9.33335 6.08032 9.3362 6.15993 9.3418 6.23882L12.4364 9.33343H12.6667V8.0001C11.56 8.0001 10.6667 7.10677 10.6667 6.0001V2.66677H11.3334C11.7 2.66677 12 2.36677 12 2.0001C12 1.63343 11.7 1.33343 11.3334 1.33343H4.66669C4.59724 1.33343 4.53019 1.34419 4.46712 1.36413L6.66669 3.5637V2.66677H9.33335V6.0001Z" fill="#282727"/>
</svg>
