<svg width="16" height="16" viewBox="0 0 16 16" fill="none" xmlns="http://www.w3.org/2000/svg">
<path d="M7.99998 1.33301C4.31998 1.33301 1.33331 4.31967 1.33331 7.99967C1.33331 11.6797 4.31998 14.6663 7.99998 14.6663C11.68 14.6663 14.6666 11.6797 14.6666 7.99967C14.6666 4.31967 11.68 1.33301 7.99998 1.33301ZM2.66665 7.99967C2.66665 5.05301 5.05331 2.66634 7.99998 2.66634C9.23331 2.66634 10.3666 3.08634 11.2666 3.79301L3.79331 11.2663C3.08665 10.3663 2.66665 9.23301 2.66665 7.99967ZM7.99998 13.333C6.76665 13.333 5.63331 12.913 4.73331 12.2063L12.2066 4.73301C12.9133 5.63301 13.3333 6.76634 13.3333 7.99967C13.3333 10.9463 10.9466 13.333 7.99998 13.333Z" fill="#282727"/>
</svg>
