<svg width="16" height="16" viewBox="0 0 16 16" fill="none" xmlns="http://www.w3.org/2000/svg">
<path d="M11.1134 8.75366C12.0267 9.37366 12.6667 10.2137 12.6667 11.3337V13.3337H15.3334V11.3337C15.3334 9.88033 12.9534 9.02033 11.1134 8.75366Z" fill="#282727"/>
<path d="M10 8.00033C11.4734 8.00033 12.6667 6.80699 12.6667 5.33366C12.6667 3.86033 11.4734 2.66699 10 2.66699C9.68669 2.66699 9.39335 2.73366 9.11335 2.82699C9.66669 3.51366 10 4.38699 10 5.33366C10 6.28033 9.66669 7.15366 9.11335 7.84033C9.39335 7.93366 9.68669 8.00033 10 8.00033Z" fill="#282727"/>
<path d="M6.00002 8.00033C7.47335 8.00033 8.66669 6.80699 8.66669 5.33366C8.66669 3.86033 7.47335 2.66699 6.00002 2.66699C4.52669 2.66699 3.33335 3.86033 3.33335 5.33366C3.33335 6.80699 4.52669 8.00033 6.00002 8.00033ZM6.00002 4.00033C6.73335 4.00033 7.33335 4.60033 7.33335 5.33366C7.33335 6.06699 6.73335 6.66699 6.00002 6.66699C5.26669 6.66699 4.66669 6.06699 4.66669 5.33366C4.66669 4.60033 5.26669 4.00033 6.00002 4.00033Z" fill="#282727"/>
<path d="M6.00002 8.66699C4.22002 8.66699 0.666687 9.56033 0.666687 11.3337V13.3337H11.3334V11.3337C11.3334 9.56033 7.78002 8.66699 6.00002 8.66699ZM10 12.0003H2.00002V11.3403C2.13335 10.8603 4.20002 10.0003 6.00002 10.0003C7.80002 10.0003 9.86669 10.8603 10 11.3337V12.0003Z" fill="#282727"/>
</svg>
