<svg width="16" height="16" viewBox="0 0 16 16" fill="none" xmlns="http://www.w3.org/2000/svg">
<path d="M7.99998 1.33301C4.31331 1.33301 1.33331 4.31301 1.33331 7.99967C1.33331 11.6863 4.31331 14.6663 7.99998 14.6663C11.6866 14.6663 14.6666 11.6863 14.6666 7.99967C14.6666 4.31301 11.6866 1.33301 7.99998 1.33301ZM7.99998 13.333C5.05998 13.333 2.66665 10.9397 2.66665 7.99967C2.66665 5.05967 5.05998 2.66634 7.99998 2.66634C10.94 2.66634 13.3333 5.05967 13.3333 7.99967C13.3333 10.9397 10.94 13.333 7.99998 13.333ZM10.3933 4.66634L7.99998 7.05967L5.60665 4.66634L4.66665 5.60634L7.05998 7.99967L4.66665 10.393L5.60665 11.333L7.99998 8.93967L10.3933 11.333L11.3333 10.393L8.93998 7.99967L11.3333 5.60634L10.3933 4.66634Z" fill="#282727"/>
</svg>
