<svg width="16" height="16" viewBox="0 0 16 16" fill="none" xmlns="http://www.w3.org/2000/svg">
<path d="M8.66671 5.55317C9.23337 5.35317 9.68671 4.89984 9.88671 4.33317H12L10 8.99984C10 10.1065 11.0467 10.9998 12.3334 10.9998C13.62 10.9998 14.6667 10.1065 14.6667 8.99984L12.6667 4.33317H14V2.99984H9.88671C9.61337 2.21984 8.87337 1.6665 8.00004 1.6665C7.12671 1.6665 6.38671 2.21984 6.11337 2.99984H2.00004V4.33317H3.33337L1.33337 8.99984C1.33337 10.1065 2.38004 10.9998 3.66671 10.9998C4.95337 10.9998 6.00004 10.1065 6.00004 8.99984L4.00004 4.33317H6.11337C6.31337 4.89984 6.76671 5.35317 7.33337 5.55317V12.9998H1.33337V14.3332H14.6667V12.9998H8.66671V5.55317ZM13.58 8.99984H11.0867L12.3334 6.09317L13.58 8.99984ZM4.91337 8.99984H2.42004L3.66671 6.09317L4.91337 8.99984ZM8.00004 4.33317C7.63337 4.33317 7.33337 4.03317 7.33337 3.6665C7.33337 3.29984 7.63337 2.99984 8.00004 2.99984C8.36671 2.99984 8.66671 3.29984 8.66671 3.6665C8.66671 4.03317 8.36671 4.33317 8.00004 4.33317Z" fill="#282727"/>
</svg>
