<svg width="16" height="16" viewBox="0 0 16 16" fill="none" xmlns="http://www.w3.org/2000/svg">
<path d="M12.9548 8.65301C12.9815 8.43967 13.0015 8.22634 13.0015 7.99967C13.0015 7.77301 12.9815 7.55967 12.9548 7.34634L14.3615 6.24634C14.4881 6.14634 14.5215 5.96634 14.4415 5.81967L13.1081 3.51301C13.0481 3.40634 12.9348 3.34634 12.8148 3.34634C12.7748 3.34634 12.7348 3.35301 12.7015 3.36634L11.0415 4.03301C10.6948 3.76634 10.3215 3.54634 9.91481 3.37967L9.66148 1.61301C9.64148 1.45301 9.50148 1.33301 9.33481 1.33301H6.66815C6.50148 1.33301 6.36148 1.45301 6.34148 1.61301L6.08815 3.37967C5.68148 3.54634 5.30815 3.77301 4.96148 4.03301L3.30148 3.36634C3.26148 3.35301 3.22148 3.34634 3.18148 3.34634C3.06815 3.34634 2.95481 3.40634 2.89481 3.51301L1.56148 5.81967C1.47481 5.96634 1.51481 6.14634 1.64148 6.24634L3.04815 7.34634C3.02148 7.55967 3.00148 7.77967 3.00148 7.99967C3.00148 8.21967 3.02148 8.43967 3.04815 8.65301L1.64148 9.75301C1.51481 9.85301 1.48148 10.033 1.56148 10.1797L2.89481 12.4863C2.95481 12.593 3.06815 12.653 3.18815 12.653C3.22815 12.653 3.26815 12.6463 3.30148 12.633L4.96148 11.9663C5.30815 12.233 5.68148 12.453 6.08815 12.6197L6.34148 14.3863C6.36148 14.5463 6.50148 14.6663 6.66815 14.6663H9.33481C9.50148 14.6663 9.64148 14.5463 9.66148 14.3863L9.91481 12.6197C10.3215 12.453 10.6948 12.2263 11.0415 11.9663L12.7015 12.633C12.7415 12.6463 12.7815 12.653 12.8215 12.653C12.9348 12.653 13.0481 12.593 13.1081 12.4863L14.4415 10.1797C14.5215 10.033 14.4881 9.85301 14.3615 9.75301L12.9548 8.65301ZM11.6348 7.51301C11.6615 7.71968 11.6681 7.85967 11.6681 7.99967C11.6681 8.13967 11.6548 8.28634 11.6348 8.48634L11.5415 9.23967L12.1348 9.70634L12.8548 10.2663L12.3881 11.073L11.5415 10.733L10.8481 10.453L10.2481 10.9063C9.96148 11.1197 9.68815 11.2797 9.41481 11.393L8.70815 11.6797L8.60148 12.433L8.46815 13.333H7.53481L7.30148 11.6797L6.59481 11.393C6.30815 11.273 6.04148 11.1197 5.77481 10.9197L5.16815 10.453L4.46148 10.7397L3.61481 11.0797L3.14815 10.273L3.86815 9.71301L4.46148 9.24634L4.36815 8.49301C4.34815 8.28634 4.33481 8.13301 4.33481 7.99967C4.33481 7.86634 4.34815 7.71301 4.36815 7.51301L4.46148 6.75968L3.86815 6.29301L3.14815 5.73301L3.61481 4.92634L4.46148 5.26634L5.15481 5.54634L5.75481 5.09301C6.04148 4.87967 6.31481 4.71967 6.58815 4.60634L7.29481 4.31967L7.40148 3.56634L7.53481 2.66634H8.46148L8.69481 4.31967L9.40148 4.60634C9.68815 4.72634 9.95481 4.87967 10.2215 5.07967L10.8281 5.54634L11.5348 5.25967L12.3815 4.91967L12.8481 5.72634L12.1348 6.29301L11.5415 6.75968L11.6348 7.51301ZM8.00148 5.33301C6.52815 5.33301 5.33481 6.52634 5.33481 7.99967C5.33481 9.47301 6.52815 10.6663 8.00148 10.6663C9.47481 10.6663 10.6681 9.47301 10.6681 7.99967C10.6681 6.52634 9.47481 5.33301 8.00148 5.33301ZM8.00148 9.33301C7.26815 9.33301 6.66815 8.73301 6.66815 7.99967C6.66815 7.26634 7.26815 6.66634 8.00148 6.66634C8.73481 6.66634 9.33481 7.26634 9.33481 7.99967C9.33481 8.73301 8.73481 9.33301 8.00148 9.33301Z" fill="#282727"/>
</svg>
