<svg width="16" height="16" viewBox="0 0 16 16" fill="none" xmlns="http://www.w3.org/2000/svg">
<path d="M6.51998 2.6665V3.5865C5.96665 3.3665 5.37331 3.25317 4.77998 3.25317C3.58665 3.25317 2.39331 3.7065 1.47998 4.61984L3.69998 6.83984H4.43998V7.57984C5.01331 8.15317 5.75998 8.45317 6.51331 8.4865V9.99984H4.51998V11.9998C4.51998 12.7332 5.11998 13.3332 5.85331 13.3332H12.52C13.6266 13.3332 14.52 12.4398 14.52 11.3332V2.6665H6.51998ZM5.77998 6.93984V5.5065H4.25998L3.56665 4.81317C3.94665 4.6665 4.35998 4.5865 4.77998 4.5865C5.67331 4.5865 6.50665 4.93317 7.13998 5.55984L8.07998 6.49984L7.94665 6.63317C7.60665 6.97317 7.15331 7.1665 6.66665 7.1665C6.35331 7.1665 6.04665 7.0865 5.77998 6.93984ZM13.1866 11.3332C13.1866 11.6998 12.8866 11.9998 12.52 11.9998C12.1533 11.9998 11.8533 11.6998 11.8533 11.3332V9.99984H7.85331V8.27317C8.23331 8.11984 8.58665 7.89317 8.89331 7.5865L9.02665 7.45317L10.9133 9.33317H11.8533V8.39317L7.85331 4.41317V3.99984H13.1866V11.3332Z" fill="#282727"/>
</svg>
