<svg width="16" height="16" viewBox="0 0 16 16" fill="none" xmlns="http://www.w3.org/2000/svg">
<path d="M16 11.2646H0V12.7198H16V11.2646Z" fill="#282727"/>
<path d="M3.4862 1.16944C3.76735 1.16944 4.8385 1.25138 5.84941 2.10734C6.78442 2.8991 7.55974 4.26207 7.7046 6.53321C7.9941 6.49289 8.29064 6.47068 8.59347 6.47068C9.201 6.47072 9.88935 6.63221 10.1396 7.30555C10.2429 7.5839 10.2249 7.85599 10.1907 8.05303C10.1672 8.18827 10.1281 8.31943 10.0891 8.43813C10.2596 8.3051 10.4439 8.14722 10.6448 7.97132C10.9157 7.73399 11.2261 7.45838 11.5215 7.24729C11.7866 7.05796 12.1928 6.80321 12.647 6.80321C12.8863 6.80323 13.1325 6.85396 13.354 6.99221C13.5778 7.13189 13.7186 7.32461 13.8052 7.50947C13.9557 7.83111 13.9719 8.21259 13.9842 8.40261C13.9886 8.46963 13.9943 8.5261 13.9984 8.57597C14.0575 8.54676 14.1285 8.50769 14.2059 8.45021C14.5286 8.2108 14.9846 8.2783 15.2241 8.60084C15.4635 8.92348 15.396 9.37954 15.0735 9.61903C14.6149 9.95933 14.154 10.0988 13.8393 10.0958V10.0972C13.8339 10.0972 13.8283 10.0958 13.8229 10.0958C13.8194 10.0957 13.8158 10.0966 13.8123 10.0965V10.0951C13.5819 10.0912 13.345 10.0381 13.1323 9.89898C12.9106 9.75392 12.7762 9.55699 12.696 9.37461C12.5573 9.05875 12.5438 8.68053 12.5319 8.49711C12.5278 8.43357 12.5212 8.37987 12.517 8.33226C12.4765 8.35651 12.4267 8.38842 12.3671 8.43103C12.1441 8.59033 11.8968 8.80902 11.604 9.06553C11.3278 9.30745 11.0094 9.58456 10.6952 9.79879C10.4031 9.99794 9.98842 10.2336 9.5271 10.2336C9.28008 10.2336 8.93825 10.1873 8.67234 9.93166C8.38505 9.65537 8.35688 9.30504 8.3732 9.0904C8.38914 8.88077 8.45446 8.67839 8.50536 8.53405C8.54794 8.41333 8.63439 8.19218 8.66736 8.10205C8.69168 8.0356 8.71097 7.97888 8.72563 7.93011C8.68894 7.92772 8.64526 7.92585 8.59347 7.92584C8.29098 7.92584 7.99435 7.95425 7.70531 8.00684C7.62655 9.14002 7.36227 10.5703 6.8676 11.8146C6.56629 12.5724 6.1614 13.3067 5.62275 13.8623C5.07416 14.4281 4.36079 14.8307 3.4862 14.8307C2.94655 14.8307 2.44884 14.6888 2.06586 14.3554C1.68147 14.0208 1.49704 13.5665 1.44344 13.1084C1.3407 12.2295 1.69403 11.1976 2.25912 10.2713C2.53361 9.82139 2.87613 9.36781 3.27802 8.93834C2.91985 8.66949 2.55859 8.36983 2.22715 8.03526C1.36122 7.16115 0.632724 5.99463 0.632724 4.45918C0.632786 2.99149 1.15403 2.09323 1.88965 1.60926C2.56937 1.1622 3.2933 1.16943 3.4862 1.16944ZM6.19118 8.52482C6.01732 8.61336 5.84841 8.71029 5.68457 8.814C5.96065 9.04674 6.02728 9.45362 5.82597 9.76469C5.60759 10.102 5.15717 10.1984 4.81986 9.97998C4.71873 9.91451 4.61052 9.845 4.49657 9.77179C4.10343 10.1665 3.76689 10.595 3.50183 11.0294C3.01393 11.8292 2.84079 12.5236 2.88936 12.9393C2.91151 13.1286 2.97216 13.2147 3.02152 13.2576C3.07218 13.3017 3.19667 13.3755 3.4862 13.3756C3.87333 13.3756 4.23087 13.2081 4.57828 12.8498C4.93563 12.4812 5.25296 11.937 5.51546 11.2767C5.86365 10.4009 6.08185 9.40088 6.19118 8.52482ZM2.08788 4.45918C2.08788 5.48616 2.56207 6.30589 3.26096 7.01139C3.60654 7.3602 3.992 7.66648 4.38288 7.94503C4.94662 7.52157 5.57937 7.16005 6.26791 6.90055C6.18949 4.74928 5.50359 3.72118 4.90939 3.21789C4.25116 2.66056 3.56272 2.6246 3.4862 2.6246C3.32085 2.62461 2.9823 2.632 2.68899 2.82497C2.45098 2.98158 2.08794 3.36489 2.08788 4.45918Z" fill="#282727"/>
</svg>
