<svg width="16" height="16" viewBox="0 0 16 16" fill="none" xmlns="http://www.w3.org/2000/svg">
<path d="M7.33331 9.99967H8.66665V11.333H7.33331V9.99967ZM7.33331 4.66634H8.66665V8.66634H7.33331V4.66634ZM7.99331 1.33301C4.31331 1.33301 1.33331 4.31967 1.33331 7.99967C1.33331 11.6797 4.31331 14.6663 7.99331 14.6663C11.68 14.6663 14.6666 11.6797 14.6666 7.99967C14.6666 4.31967 11.68 1.33301 7.99331 1.33301ZM7.99998 13.333C5.05331 13.333 2.66665 10.9463 2.66665 7.99967C2.66665 5.05301 5.05331 2.66634 7.99998 2.66634C10.9466 2.66634 13.3333 5.05301 13.3333 7.99967C13.3333 10.9463 10.9466 13.333 7.99998 13.333Z" fill="#282727"/>
</svg>
