<svg width="16" height="16" viewBox="0 0 16 16" fill="none" xmlns="http://www.w3.org/2000/svg">
<path d="M15.3334 7.99333L13.7067 6.13333L13.9334 3.67333L11.5267 3.12667L10.2667 1L8.00002 1.97333L5.73335 1L4.47335 3.12667L2.06669 3.66667L2.29335 6.13333L0.666687 7.99333L2.29335 9.85333L2.06669 12.32L4.47335 12.8667L5.73335 15L8.00002 14.02L10.2667 14.9933L11.5267 12.8667L13.9334 12.32L13.7067 9.86L15.3334 7.99333ZM12.7 8.98L12.3267 9.41333L12.38 9.98L12.5 11.28L10.6734 11.6933L10.38 12.1867L9.72002 13.3067L8.53335 12.7933L8.00002 12.5667L7.47335 12.7933L6.28669 13.3067L5.62669 12.1933L5.33335 11.7L3.50669 11.2867L3.62669 9.98L3.68002 9.41333L3.30669 8.98L2.44669 8L3.30669 7.01333L3.68002 6.58L3.62002 6.00667L3.50002 4.71333L5.32669 4.3L5.62002 3.80667L6.28002 2.68667L7.46669 3.2L8.00002 3.42667L8.52669 3.2L9.71335 2.68667L10.3734 3.80667L10.6667 4.3L12.4934 4.71333L12.3734 6.01333L12.32 6.58L12.6934 7.01333L13.5534 7.99333L12.7 8.98Z" fill="#282727"/>
<path d="M6.72669 9.16667L5.18002 7.61333L4.19335 8.60667L6.72669 11.1467L11.62 6.24L10.6334 5.24667L6.72669 9.16667Z" fill="#282727"/>
</svg>
