<svg width="16" height="16" viewBox="0 0 16 16" fill="none" xmlns="http://www.w3.org/2000/svg">
<path d="M10.15 7.85967C10.7967 7.41301 11.25 6.67967 11.25 5.99967C11.25 4.49301 10.0834 3.33301 8.58335 3.33301H4.41669V12.6663H9.11002C10.5034 12.6663 11.5834 11.533 11.5834 10.1397C11.5834 9.12634 11.01 8.25967 10.15 7.85967ZM6.41669 4.99967H8.41669C8.97002 4.99967 9.41669 5.44634 9.41669 5.99967C9.41669 6.55301 8.97002 6.99967 8.41669 6.99967H6.41669V4.99967ZM8.75002 10.9997H6.41669V8.99967H8.75002C9.30335 8.99967 9.75002 9.44634 9.75002 9.99967C9.75002 10.553 9.30335 10.9997 8.75002 10.9997Z" fill="#282727"/>
</svg>
