<svg width="16" height="16" viewBox="0 0 16 16" fill="none" xmlns="http://www.w3.org/2000/svg">
<path d="M4.82667 6.8304C4.65333 6.5104 4.56667 6.14374 4.56667 5.71707C4.56667 5.3104 4.65333 4.94374 4.83333 4.60374C5.00667 4.2704 5.25333 3.98374 5.57333 3.74374C5.89333 3.5104 6.27333 3.32374 6.70667 3.1904C7.14667 3.06374 7.63333 2.99707 8.16 2.99707C8.7 2.99707 9.18667 3.0704 9.63333 3.22374C10.0733 3.3704 10.4533 3.58374 10.76 3.8504C11.0733 4.11707 11.3133 4.43707 11.48 4.80374C11.6467 5.1704 11.7333 5.5704 11.7333 6.0104H9.72667C9.72667 5.80374 9.69333 5.61707 9.62667 5.44374C9.56667 5.26374 9.46667 5.11707 9.33333 4.9904C9.2 4.86374 9.03333 4.7704 8.83333 4.69707C8.63333 4.6304 8.39333 4.5904 8.12667 4.5904C7.86667 4.5904 7.63333 4.61707 7.44 4.67707C7.24667 4.73707 7.08667 4.81707 6.96 4.91707C6.83333 5.02374 6.73333 5.14374 6.66667 5.28374C6.6 5.42374 6.56667 5.5704 6.56667 5.72374C6.56667 6.04374 6.73333 6.3104 7.06 6.5304C7.31333 6.69707 7.57333 6.8504 8 6.99707H4.92667C4.89333 6.94374 4.85333 6.88374 4.82667 6.8304ZM14 7.66374H2V8.99707H8.41333C8.53333 9.04374 8.68 9.0904 8.78 9.1304C9.02667 9.24374 9.22 9.35707 9.36 9.4704C9.5 9.58374 9.59333 9.7104 9.64667 9.8504C9.69333 9.98374 9.72 10.1371 9.72 10.3104C9.72 10.4637 9.68667 10.6104 9.62667 10.7504C9.56667 10.8837 9.47333 11.0037 9.34667 11.1037C9.22 11.2037 9.06667 11.2771 8.87333 11.3371C8.68 11.3904 8.45333 11.4237 8.2 11.4237C7.91333 11.4237 7.64667 11.3971 7.41333 11.3371C7.18 11.2771 6.97333 11.1837 6.80667 11.0571C6.64 10.9304 6.50667 10.7637 6.41333 10.5571C6.32 10.3504 6.24667 10.0504 6.24667 9.7504H4.26667C4.26667 10.1171 4.32 10.5037 4.42667 10.8037C4.53333 11.1037 4.67333 11.3704 4.86 11.6104C5.04667 11.8437 5.26 12.0504 5.51333 12.2237C5.76 12.3971 6.03333 12.5437 6.32667 12.6571C6.62 12.7704 6.92667 12.8571 7.24667 12.9171C7.56667 12.9704 7.88667 13.0037 8.20667 13.0037C8.74 13.0037 9.22667 12.9437 9.66 12.8171C10.0933 12.6904 10.4667 12.5171 10.7733 12.2904C11.08 12.0637 11.32 11.7771 11.4867 11.4437C11.6533 11.1104 11.74 10.7304 11.74 10.3037C11.74 9.90374 11.6733 9.54374 11.5333 9.2304C11.5 9.15707 11.46 9.07707 11.42 9.0104H14V7.66374Z" fill="#282727"/>
</svg>
