<svg width="16" height="16" viewBox="0 0 16 16" fill="none" xmlns="http://www.w3.org/2000/svg">
<path d="M8.00002 3.98288C10.5267 3.98288 12.78 5.40288 13.88 7.64954C13.4867 8.46288 12.9334 9.16288 12.2734 9.72954L13.2134 10.6695C14.14 9.84955 14.8734 8.82288 15.3334 7.64954C14.18 4.72288 11.3334 2.64954 8.00002 2.64954C7.15335 2.64954 6.34002 2.78288 5.57335 3.02954L6.67335 4.12954C7.10669 4.04288 7.54669 3.98288 8.00002 3.98288ZM7.28669 4.74288L8.66669 6.12288C9.04669 6.28954 9.35335 6.59621 9.52002 6.97621L10.9 8.35621C10.9534 8.12954 10.9934 7.88954 10.9934 7.64288C11 5.98954 9.65335 4.64954 8.00002 4.64954C7.75335 4.64954 7.52002 4.68288 7.28669 4.74288ZM1.34002 2.56288L3.12669 4.34954C2.04002 5.20288 1.18002 6.33621 0.666687 7.64954C1.82002 10.5762 4.66669 12.6495 8.00002 12.6495C9.01335 12.6495 9.98669 12.4562 10.88 12.1029L13.16 14.3829L14.1 13.4429L2.28002 1.61621L1.34002 2.56288ZM6.34002 7.56288L8.08002 9.30288C8.05335 9.30954 8.02669 9.31621 8.00002 9.31621C7.08002 9.31621 6.33335 8.56954 6.33335 7.64954C6.33335 7.61621 6.34002 7.59621 6.34002 7.56288ZM4.07335 5.29621L5.24002 6.46288C5.08669 6.82954 5.00002 7.22954 5.00002 7.64954C5.00002 9.30288 6.34669 10.6495 8.00002 10.6495C8.42002 10.6495 8.82002 10.5629 9.18002 10.4095L9.83335 11.0629C9.24669 11.2229 8.63335 11.3162 8.00002 11.3162C5.47335 11.3162 3.22002 9.89621 2.12002 7.64954C2.58669 6.69621 3.26669 5.90954 4.07335 5.29621Z" fill="#282727"/>
</svg>
